# This file uses centimeters as units for non-parametric coordinates.

g default
v 0.188960 3.012787 1.239212
v 0.194236 3.012787 1.258902
v 0.208650 3.012787 1.273317
v 0.228340 3.012787 1.278593
v 0.976650 3.012787 1.239212
v 0.937270 3.012787 1.278593
v 0.956960 3.012787 1.273317
v 0.971374 3.012787 1.258902
v 0.208650 3.012787 0.496178
v 0.194236 3.012787 0.510592
v 0.188960 3.012787 0.530283
v 0.228340 3.012787 0.490902
v 0.971374 3.012787 0.510592
v 0.956960 3.012787 0.496178
v 0.937270 3.012787 0.490902
v 0.976650 3.012787 0.530283
v 0.958657 2.991637 0.545578
v 0.958657 2.991637 1.223917
v 0.953742 2.991637 1.242258
v 0.940316 2.991637 1.255684
v 0.921975 2.991637 1.260599
v 0.243635 2.991637 1.260599
v 0.225294 2.991637 1.255684
v 0.211868 2.991637 1.242258
v 0.206953 2.991637 1.223917
v 0.206953 2.991637 0.545578
v 0.211868 2.991637 0.527237
v 0.225294 2.991637 0.513810
v 0.243635 2.991637 0.508896
v 0.921975 2.991637 0.508896
v 0.940316 2.991637 0.513810
v 0.953742 2.991637 0.527237
v 0.228340 3.004111 1.278593
v 0.231974 2.996169 1.274318
v 0.937270 3.004111 1.278593
v 0.933636 2.996169 1.274318
v 0.188960 3.004111 1.239212
v 0.193235 2.996169 1.235578
v 0.188960 3.004111 0.530283
v 0.193235 2.996169 0.533916
v 0.228340 3.004111 0.490902
v 0.231974 2.996169 0.495177
v 0.937270 3.004111 0.490902
v 0.933636 2.996169 0.495177
v 0.976650 3.004111 1.239212
v 0.972375 2.996169 1.235578
v 0.976650 3.004111 0.530283
v 0.972375 2.996169 0.533917
v 0.194236 3.004180 1.258902
v 0.198113 2.996381 1.255242
v 0.208650 3.004180 1.273317
v 0.212310 2.996381 1.269440
v 0.956960 3.004180 1.273317
v 0.953300 2.996381 1.269440
v 0.971374 3.004180 1.258902
v 0.967497 2.996381 1.255242
v 0.194236 3.004180 0.510592
v 0.198113 2.996381 0.514252
v 0.208650 3.004180 0.496178
v 0.212310 2.996381 0.500055
v 0.956960 3.004180 0.496178
v 0.953300 2.996381 0.500055
v 0.971374 3.004180 0.510592
v 0.967497 2.996381 0.514252
v 0.856140 2.962298 0.638089
v 0.856140 2.962298 1.131405
v 0.852566 2.962298 1.144744
v 0.842801 2.962298 1.154508
v 0.829463 2.962298 1.158082
v 0.336147 2.962298 1.158082
v 0.322809 2.962298 1.154508
v 0.313044 2.962298 1.144744
v 0.309470 2.962298 1.131405
v 0.309470 2.962298 0.638089
v 0.313044 2.962298 0.624751
v 0.322809 2.962298 0.614987
v 0.336147 2.962298 0.611413
v 0.829463 2.962298 0.611413
v 0.842801 2.962298 0.614987
v 0.852566 2.962298 0.624751
v 0.336147 2.962298 0.638089
v 0.336147 2.962298 1.131405
v 0.829463 2.962298 1.131405
v 0.829463 2.962298 0.638089
v 0.336147 2.962298 0.624751
v 0.829463 2.962298 0.624751
v 0.829463 2.962298 1.144744
v 0.336147 2.962298 1.144744
v 0.186671 3.010792 1.274940
v 0.192613 3.010792 1.280882
v 0.186671 3.028941 1.274940
v 0.192613 3.028941 1.280882
v 0.978939 3.010792 1.274940
v 0.972997 3.010792 1.280882
v 0.972997 3.028941 1.280882
v 0.978939 3.028941 1.274940
v 0.192613 3.028941 0.488614
v 0.186671 3.028941 0.494555
v 0.186671 3.010792 0.494555
v 0.192613 3.010792 0.488614
v 0.978939 3.028941 0.494555
v 0.972997 3.028941 0.488614
v 0.978939 3.010792 0.494555
v 0.972997 3.010792 0.488614
vt 0.474432 0.993562
vt 0.475556 0.992438
vt 0.475967 0.990904
vt 0.475967 0.935633
vt 0.475556 0.934099
vt 0.474432 0.932974
vt 0.472897 0.932564
vt 0.417627 0.932564
vt 0.416092 0.932974
vt 0.414968 0.934099
vt 0.414557 0.935633
vt 0.414557 0.990903
vt 0.414968 0.992438
vt 0.416092 0.993562
vt 0.417627 0.993973
vt 0.472897 0.993973
vt 0.464492 0.984578
vt 0.426032 0.984578
vt 0.424992 0.984299
vt 0.424231 0.983538
vt 0.423952 0.982498
vt 0.423952 0.944038
vt 0.424231 0.942998
vt 0.424992 0.942237
vt 0.426032 0.941958
vt 0.464492 0.941958
vt 0.465532 0.942237
vt 0.466293 0.942998
vt 0.466571 0.944038
vt 0.466571 0.982498
vt 0.466293 0.983538
vt 0.465531 0.984299
vt 0.414557 0.935633
vt 0.414891 0.935917
vt 0.414891 0.990619
vt 0.414557 0.990903
vt 0.414968 0.934099
vt 0.415270 0.934384
vt 0.415270 0.992153
vt 0.414968 0.992438
vt 0.417627 0.932564
vt 0.417911 0.932896
vt 0.416378 0.933277
vt 0.416092 0.932974
vt 0.472897 0.932564
vt 0.472614 0.932896
vt 0.474432 0.932974
vt 0.474146 0.933277
vt 0.475967 0.935633
vt 0.475633 0.935917
vt 0.475253 0.934383
vt 0.475556 0.934099
vt 0.475967 0.990904
vt 0.475633 0.990620
vt 0.475556 0.992438
vt 0.475253 0.992153
vt 0.417627 0.993973
vt 0.417911 0.993639
vt 0.472614 0.993639
vt 0.472897 0.993973
vt 0.416092 0.993562
vt 0.416377 0.993260
vt 0.474146 0.993260
vt 0.474432 0.993562
vt 0.418820 0.992570
vt 0.471704 0.992570
vt 0.417390 0.992187
vt 0.416343 0.991140
vt 0.415960 0.989710
vt 0.415960 0.936826
vt 0.416343 0.935395
vt 0.417390 0.934349
vt 0.418820 0.933966
vt 0.471704 0.933966
vt 0.473134 0.934349
vt 0.474181 0.935395
vt 0.474564 0.936826
vt 0.474564 0.989710
vt 0.474181 0.991140
vt 0.473134 0.992187
vt 0.464492 0.944038
vt 0.426032 0.944038
vt 0.426032 0.982498
vt 0.464492 0.982498
vt 0.465532 0.944038
vt 0.465532 0.982498
vt 0.424992 0.982498
vt 0.424992 0.944038
vt 0.675760 0.931670
vt 0.676204 0.932114
vt 0.676204 0.990480
vt 0.675760 0.990925
vt 0.617395 0.990925
vt 0.616950 0.990480
vt 0.616950 0.932114
vt 0.617395 0.931670
vt 0.920539 0.865874
vt 0.922030 0.865874
vt 0.947324 0.979702
vt 0.945838 0.979702
vt 0.945838 0.926468
vt 0.947324 0.926468
vt 0.978466 0.973080
vt 0.976975 0.973080
vt 0.922025 0.979690
vt 0.920539 0.979690
vt 0.920539 0.926450
vt 0.922025 0.926450
vt 0.920539 0.919687
vt 0.920539 0.919280
vt 0.922030 0.919280
vt 0.922030 0.919687
vt 0.920539 0.865468
vt 0.922030 0.865468
vt 0.976975 0.973486
vt 0.978466 0.973486
vt 0.976975 0.919700
vt 0.976975 0.919294
vt 0.978466 0.919294
vt 0.978466 0.919700
vn 0.000000 0.000000 1.000000
vn 0.000000 0.000000 1.000000
vn 0.000000 0.000000 1.000000
vn 0.000000 0.000000 1.000000
vn 0.000000 0.000000 -1.000000
vn 0.000000 0.000000 -1.000000
vn 0.000000 0.000000 -1.000000
vn 0.000000 0.000000 -1.000000
vn 1.000000 0.000000 0.000000
vn 1.000000 0.000000 0.000000
vn 1.000000 0.000000 0.000000
vn 1.000000 0.000000 0.000000
vn -1.000000 0.000000 0.000000
vn -1.000000 0.000000 0.000000
vn -1.000000 0.000000 0.000000
vn -1.000000 0.000000 0.000000
vn 0.000000 -1.000000 0.000004
vn 0.000000 -1.000000 0.000002
vn 0.000000 -1.000000 -0.000000
vn 0.000000 -1.000000 -0.000001
vn -0.008203 -0.222229 0.974960
vn -0.005014 -0.735529 0.677475
vn 0.005014 -0.735529 0.677474
vn 0.008203 -0.222230 0.974960
vn -0.484110 -0.292973 0.824503
vn -0.256280 -0.859094 0.443033
vn 0.256279 -0.859091 0.443039
vn 0.484112 -0.292977 0.824500
vn -0.974962 -0.222218 0.008203
vn -0.677496 -0.735510 0.005013
vn -0.443038 -0.859094 0.256270
vn -0.824516 -0.292974 0.484087
vn -0.974962 -0.222219 -0.008203
vn -0.677496 -0.735510 -0.005013
vn -0.824509 -0.292984 -0.484092
vn -0.443034 -0.859094 -0.256277
vn -0.008203 -0.222208 -0.974965
vn -0.005014 -0.735516 -0.677489
vn -0.256279 -0.859094 -0.443033
vn -0.484101 -0.292983 -0.824504
vn 0.008203 -0.222208 -0.974965
vn 0.005014 -0.735516 -0.677488
vn 0.484106 -0.292984 -0.824501
vn 0.256279 -0.859095 -0.443031
vn 0.974962 -0.222222 0.008203
vn 0.677494 -0.735511 0.005013
vn 0.677495 -0.735511 -0.005013
vn 0.974962 -0.222222 -0.008203
vn 0.824514 -0.292976 0.484088
vn 0.443037 -0.859093 0.256277
vn 0.443035 -0.859096 -0.256270
vn 0.824510 -0.292983 -0.484090
vn -0.007213 0.000000 0.999974
vn 0.007213 0.000000 0.999974
vn -0.007212 0.000000 -0.999974
vn 0.007212 0.000000 -0.999974
vn 0.999974 0.000000 0.007213
vn 0.999974 0.000000 -0.007213
vn -0.999974 0.000000 -0.007213
vn -0.999974 0.000000 0.007213
vn -0.965928 0.000000 0.258811
vn -0.499537 0.000000 0.866293
vn -0.707112 0.000000 0.707102
vn 0.499546 0.000000 0.866287
vn 0.707112 0.000000 0.707102
vn 0.965928 0.000000 0.258811
vn -0.866296 0.000001 -0.499530
vn -0.707112 0.000002 -0.707102
vn -0.258810 0.000003 -0.965928
vn 0.258822 0.000005 -0.965925
vn 0.707105 0.000006 -0.707108
vn 0.707105 0.000006 -0.707108
vn 0.965927 0.000000 -0.258815
vn 0.312787 -0.949823 0.001222
vn 0.312787 -0.949823 -0.001222
vn 0.219094 -0.968336 0.119682
vn 0.119679 -0.968334 0.219102
vn 0.001222 -0.949834 0.312751
vn -0.001222 -0.949834 0.312751
vn -0.119679 -0.968335 0.219098
vn -0.219095 -0.968337 0.119672
vn -0.312785 -0.949823 0.001222
vn -0.312785 -0.949823 -0.001222
vn -0.219092 -0.968336 -0.119684
vn -0.119683 -0.968333 -0.219104
vn -0.001222 -0.949832 -0.312758
vn 0.001222 -0.949832 -0.312758
vn 0.119683 -0.968333 -0.219105
vn 0.219092 -0.968336 -0.119685
vn 0.275141 -0.961404 0.000000
vn 0.275141 -0.961404 0.000000
vn 0.275140 -0.961404 0.000000
vn 0.275140 -0.961404 0.000000
vn 0.224172 -0.972698 0.060053
vn 0.224172 -0.972698 0.060053
vn 0.224172 -0.972698 0.060053
vn 0.224172 -0.972698 0.060053
vn 0.144542 -0.978883 0.144551
vn 0.144542 -0.978883 0.144551
vn 0.144542 -0.978883 0.144551
vn 0.144542 -0.978883 0.144551
vn 0.060067 -0.972699 0.224164
vn 0.060067 -0.972699 0.224164
vn 0.060067 -0.972699 0.224164
vn 0.060067 -0.972699 0.224164
vn 0.000000 -0.961403 0.275143
vn 0.000000 -0.961403 0.275143
vn 0.000000 -0.961403 0.275143
vn 0.000000 -0.961403 0.275143
vn -0.060066 -0.972699 0.224163
vn -0.060066 -0.972699 0.224163
vn -0.060066 -0.972699 0.224163
vn -0.060066 -0.972699 0.224163
vn -0.144542 -0.978883 0.144551
vn -0.144542 -0.978883 0.144551
vn -0.144542 -0.978883 0.144551
vn -0.144542 -0.978883 0.144551
vn -0.224171 -0.972698 0.060052
vn -0.224171 -0.972698 0.060052
vn -0.224171 -0.972698 0.060052
vn -0.224171 -0.972698 0.060052
vn -0.275140 -0.961404 0.000000
vn -0.275140 -0.961404 0.000000
vn -0.275140 -0.961404 0.000000
vn -0.275140 -0.961404 0.000000
vn -0.224169 -0.972698 -0.060054
vn -0.224169 -0.972698 -0.060054
vn -0.224169 -0.972698 -0.060054
vn -0.224169 -0.972698 -0.060054
vn -0.144544 -0.978883 -0.144549
vn -0.144544 -0.978883 -0.144549
vn -0.144544 -0.978883 -0.144549
vn -0.144544 -0.978883 -0.144549
vn -0.060066 -0.972699 -0.224164
vn -0.060066 -0.972699 -0.224164
vn -0.060066 -0.972699 -0.224164
vn -0.060066 -0.972699 -0.224164
vn 0.000000 -0.961403 -0.275146
vn 0.000000 -0.961403 -0.275146
vn 0.000000 -0.961403 -0.275146
vn 0.000000 -0.961403 -0.275146
vn 0.060067 -0.972698 -0.224165
vn 0.060067 -0.972698 -0.224165
vn 0.060067 -0.972698 -0.224165
vn 0.060067 -0.972698 -0.224165
vn 0.144545 -0.978885 -0.144537
vn 0.144545 -0.978885 -0.144537
vn 0.144545 -0.978885 -0.144537
vn 0.144545 -0.978885 -0.144537
vn 0.224169 -0.972698 -0.060054
vn 0.224169 -0.972698 -0.060054
vn 0.224169 -0.972698 -0.060054
vn 0.224169 -0.972698 -0.060054
vn 0.000000 -1.000000 -0.000000
vn 0.000000 -1.000000 -0.000001
vn 0.000000 -1.000000 -0.000000
vn 0.000000 -1.000000 -0.000000
vn 0.000000 -1.000000 0.000002
vn 0.000000 -1.000000 -0.000007
vn 0.000000 -1.000000 0.000000
vn 0.000000 -1.000000 0.000000
vn 0.000000 -1.000000 0.000007
vn 0.000000 -1.000000 0.000000
vn 0.000000 -1.000000 0.000000
vn 0.000000 -1.000000 0.000004
vn 0.000000 -1.000000 0.000018
vn 0.000000 -1.000000 0.000018
vn 0.000000 -1.000000 0.000017
vn 0.000000 -1.000000 0.000000
vn 0.000000 -1.000000 0.000000
vn 0.000000 -1.000000 0.000000
vn 0.000000 -1.000000 0.000000
vn 0.000000 -1.000000 0.000018
vn 0.000000 -1.000000 0.000000
vn 0.000000 -1.000000 0.000000
vn 0.000000 -1.000000 0.000000
vn 0.000000 -1.000000 0.000000
vn 0.000000 -1.000000 0.000000
vn 0.000000 -1.000000 0.000000
vn 0.000000 -1.000000 0.000000
vn 0.000000 -1.000000 0.000000
vn -0.707107 0.000000 0.707107
vn -0.707107 0.000000 0.707107
vn -0.707107 0.000000 0.707107
vn -0.707107 0.000000 0.707107
vn 0.707113 0.000000 0.707101
vn 0.707113 0.000000 0.707101
vn 0.707113 0.000000 0.707101
vn 0.707113 0.000000 0.707101
vn -0.707113 0.000000 -0.707101
vn -0.707113 0.000000 -0.707101
vn -0.707113 0.000000 -0.707101
vn -0.707113 0.000000 -0.707101
vn 0.707119 0.000000 -0.707095
vn 0.707119 0.000000 -0.707095
vn 0.707119 0.000000 -0.707095
vn 0.707119 0.000000 -0.707095
s off
g bigVentilation_01 ceilingAndFloor
f 92/111/1 90/110/2 94/97/3 95/98/4
f 100/103/5 97/104/6 102/117/7 104/120/8
f 96/105/9 93/106/10 103/107/11 101/108/12
f 98/99/13 99/100/14 89/101/15 91/102/16
s 1
f 75/27/17 85/85/18 81/81/19 74/26/20
s 2
f 33/33/21 34/34/22 36/35/23 35/36/24
f 34/34/22 33/33/21 51/37/25 52/38/26
f 35/36/24 36/35/23 54/39/27 53/40/28
f 37/41/29 38/42/30 50/43/31 49/44/32
f 38/42/30 37/41/29 39/45/33 40/46/34
f 40/46/34 39/45/33 57/47/35 58/48/36
f 41/49/37 42/50/38 60/51/39 59/52/40
f 42/50/38 41/49/37 43/53/41 44/54/42
f 44/54/42 43/53/41 61/55/43 62/56/44
f 45/57/45 46/58/46 48/59/47 47/60/48
f 46/58/46 45/57/45 55/61/49 56/62/50
f 47/60/48 48/59/47 64/63/51 63/64/52
f 49/44/32 50/43/31 52/38/26 51/37/25
f 53/40/28 54/39/27 56/62/50 55/61/49
f 58/48/36 57/47/35 59/52/40 60/51/39
f 62/56/44 61/55/43 63/64/52 64/63/51
f 4/11/53 33/33/21 35/36/24 6/12/54
f 41/49/37 12/4/55 15/3/56 43/53/41
f 5/15/57 45/57/45 47/60/48 16/16/58
f 11/7/59 39/45/33 37/41/29 1/8/60
f 37/41/29 49/44/32 2/9/61 1/8/60
f 49/44/32 51/37/25 3/10/62 2/9/63
f 51/37/25 33/33/21 4/11/53 3/10/62
f 35/36/24 53/40/28 7/13/64 6/12/54
f 53/40/28 55/61/49 8/14/65 7/13/64
f 55/61/49 45/57/45 5/15/57 8/14/66
f 11/7/59 10/6/67 57/47/35 39/45/33
f 10/6/67 9/5/68 59/52/40 57/47/35
f 9/5/69 12/4/55 41/49/37 59/52/40
f 15/3/56 14/2/70 61/55/43 43/53/41
f 14/2/71 13/1/72 63/64/52 61/55/43
f 13/1/73 16/16/58 47/60/48 63/64/52
f 48/59/47 46/58/46 18/65/74 17/66/75
f 46/58/46 56/62/50 19/67/76 18/65/74
f 56/62/50 54/39/27 20/68/77 19/67/76
f 54/39/27 36/35/23 21/69/78 20/68/77
f 36/35/23 34/34/22 22/70/79 21/69/78
f 34/34/22 52/38/26 23/71/80 22/70/79
f 52/38/26 50/43/31 24/72/81 23/71/80
f 50/43/31 38/42/30 25/73/82 24/72/81
f 38/42/30 40/46/34 26/74/83 25/73/82
f 40/46/34 58/48/36 27/75/84 26/74/83
f 58/48/36 60/51/39 28/76/85 27/75/84
f 60/51/39 42/50/38 29/77/86 28/76/85
f 42/50/38 44/54/42 30/78/87 29/77/86
f 44/54/42 62/56/44 31/79/88 30/78/87
f 62/56/44 64/63/51 32/80/89 31/79/88
f 64/63/51 48/59/47 17/66/75 32/80/89
s off
f 17/66/90 18/65/91 66/18/92 65/17/93
f 18/65/94 19/67/95 67/19/96 66/18/97
f 19/67/98 20/68/99 68/20/100 67/19/101
f 20/68/102 21/69/103 69/21/104 68/20/105
f 21/69/106 22/70/107 70/22/108 69/21/109
f 22/70/110 23/71/111 71/23/112 70/22/113
f 23/71/114 24/72/115 72/24/116 71/23/117
f 24/72/118 25/73/119 73/25/120 72/24/121
f 25/73/122 26/74/123 74/26/124 73/25/125
f 26/74/126 27/75/127 75/27/128 74/26/129
f 27/75/130 28/76/131 76/28/132 75/27/133
f 28/76/134 29/77/135 77/29/136 76/28/137
f 29/77/138 30/78/139 78/30/140 77/29/141
f 30/78/142 31/79/143 79/31/144 78/30/145
f 31/79/146 32/80/147 80/32/148 79/31/149
f 32/80/150 17/66/151 65/17/152 80/32/153
s 1
f 81/81/19 82/82/154 73/25/155 74/26/20
f 65/17/156 84/84/157 86/86/158 80/32/159
f 65/17/156 66/18/160 83/83/161 84/84/157
f 67/19/162 87/87/163 83/83/161 66/18/160
f 73/25/155 82/82/154 88/88/164 72/24/165
f 82/82/154 83/83/161 87/87/163 88/88/164
f 84/84/157 83/83/161 82/82/154 81/81/19
f 85/85/18 86/86/158 84/84/157 81/81/19
f 77/29/166 85/85/18 75/27/17 76/28/167
f 78/30/168 86/86/158 85/85/18 77/29/166
f 80/32/159 86/86/158 78/30/168 79/31/169
f 69/21/170 87/87/163 67/19/162 68/20/171
f 88/88/164 87/87/163 69/21/170 70/22/172
f 72/24/165 88/88/164 70/22/172 71/23/173
s off
f 93/89/174 94/90/175 90/91/176 89/92/177 99/93/178 100/94/179 104/95/180 103/96/181
f 89/109/182 90/110/183 92/111/184 91/112/185
f 94/97/186 93/113/187 96/114/188 95/98/189
f 98/115/190 97/104/191 100/103/192 99/116/193
f 102/117/194 101/118/195 103/119/196 104/120/197
