# This file uses centimeters as units for non-parametric coordinates.

g default
v 3.580281 3.012787 0.343781
v 3.585557 3.012787 0.363471
v 3.599971 3.012787 0.377886
v 3.619662 3.012787 0.383162
v 4.367972 3.012787 0.343781
v 4.328591 3.012787 0.383162
v 4.348281 3.012787 0.377886
v 4.362696 3.012787 0.363471
v 3.599971 3.012787 -0.399253
v 3.585557 3.012787 -0.384839
v 3.580281 3.012787 -0.365148
v 3.619662 3.012787 -0.404529
v 4.362696 3.012787 -0.384839
v 4.348281 3.012787 -0.399253
v 4.328591 3.012787 -0.404529
v 4.367972 3.012787 -0.365148
v 4.349978 2.991637 -0.349853
v 4.349978 2.991637 0.328486
v 4.345063 2.991637 0.346827
v 4.331637 2.991637 0.360253
v 4.313296 2.991637 0.365168
v 3.634957 2.991637 0.365168
v 3.616616 2.991637 0.360253
v 3.603189 2.991637 0.346827
v 3.598275 2.991637 0.328486
v 3.598275 2.991637 -0.349853
v 3.603189 2.991637 -0.368194
v 3.616616 2.991637 -0.381621
v 3.634957 2.991637 -0.386535
v 4.313296 2.991637 -0.386535
v 4.331637 2.991637 -0.381621
v 4.345063 2.991637 -0.368194
v 3.619662 3.004111 0.383162
v 3.623295 2.996169 0.378887
v 4.328591 3.004111 0.383162
v 4.324957 2.996169 0.378887
v 3.580281 3.004111 0.343781
v 3.584556 2.996169 0.340147
v 3.580281 3.004111 -0.365148
v 3.584556 2.996169 -0.361515
v 3.619661 3.004111 -0.404529
v 3.623295 2.996169 -0.400254
v 4.328591 3.004111 -0.404529
v 4.324957 2.996169 -0.400254
v 4.367972 3.004111 0.343781
v 4.363696 2.996169 0.340147
v 4.367972 3.004111 -0.365148
v 4.363696 2.996169 -0.361514
v 3.585557 3.004180 0.363471
v 3.589434 2.996381 0.359811
v 3.599971 3.004180 0.377886
v 3.603631 2.996381 0.374009
v 4.348281 3.004180 0.377886
v 4.344621 2.996381 0.374009
v 4.362696 3.004180 0.363471
v 4.358819 2.996381 0.359811
v 3.585557 3.004180 -0.384839
v 3.589434 2.996381 -0.381179
v 3.599971 3.004180 -0.399253
v 3.603631 2.996381 -0.395376
v 4.348281 3.004180 -0.399253
v 4.344621 2.996381 -0.395376
v 4.362696 3.004180 -0.384839
v 4.358819 2.996381 -0.381179
v 4.247461 2.962298 -0.257342
v 4.247461 2.962298 0.235974
v 4.243887 2.962298 0.249313
v 4.234123 2.962298 0.259077
v 4.220784 2.962298 0.262651
v 3.727468 2.962298 0.262651
v 3.714130 2.962298 0.259077
v 3.704366 2.962298 0.249313
v 3.700792 2.962298 0.235974
v 3.700792 2.962298 -0.257342
v 3.704366 2.962298 -0.270680
v 3.714130 2.962298 -0.280444
v 3.727468 2.962298 -0.284018
v 4.220784 2.962298 -0.284018
v 4.234123 2.962298 -0.280444
v 4.243887 2.962298 -0.270680
v 3.727468 2.962298 -0.257342
v 3.727468 2.962298 0.235974
v 4.220784 2.962298 0.235974
v 4.220784 2.962298 -0.257342
v 3.727468 2.962298 -0.270680
v 4.220784 2.962298 -0.270680
v 4.220784 2.962298 0.249313
v 3.727468 2.962298 0.249313
v 3.577992 3.010792 0.379509
v 3.583934 3.010792 0.385451
v 3.577992 3.028941 0.379509
v 3.583934 3.028941 0.385451
v 4.370260 3.010792 0.379509
v 4.364319 3.010792 0.385451
v 4.364319 3.028941 0.385451
v 4.370260 3.028941 0.379509
v 3.583934 3.028941 -0.406817
v 3.577992 3.028941 -0.400876
v 3.577992 3.010792 -0.400876
v 3.583934 3.010792 -0.406817
v 4.370260 3.028941 -0.400876
v 4.364319 3.028941 -0.406817
v 4.370260 3.010792 -0.400876
v 4.364319 3.010792 -0.406817
vt 0.830566 0.987389
vt 0.831690 0.986265
vt 0.832101 0.984731
vt 0.832101 0.929459
vt 0.831690 0.927925
vt 0.830566 0.926800
vt 0.829031 0.926390
vt 0.773760 0.926390
vt 0.772225 0.926800
vt 0.771102 0.927925
vt 0.770691 0.929459
vt 0.770691 0.984730
vt 0.771102 0.986265
vt 0.772225 0.987389
vt 0.773760 0.987800
vt 0.829031 0.987800
vt 0.820626 0.978405
vt 0.782165 0.978405
vt 0.781126 0.978126
vt 0.780365 0.977364
vt 0.780085 0.976325
vt 0.780085 0.937864
vt 0.780364 0.936824
vt 0.781126 0.936063
vt 0.782165 0.935785
vt 0.820626 0.935785
vt 0.821666 0.936063
vt 0.822427 0.936824
vt 0.822705 0.937864
vt 0.822705 0.976325
vt 0.822427 0.977365
vt 0.821665 0.978126
vt 0.770691 0.929459
vt 0.771024 0.929743
vt 0.771024 0.984446
vt 0.770691 0.984730
vt 0.771102 0.927925
vt 0.771404 0.928210
vt 0.771404 0.985980
vt 0.771102 0.986265
vt 0.773760 0.926390
vt 0.774044 0.926723
vt 0.772511 0.927103
vt 0.772225 0.926800
vt 0.829031 0.926390
vt 0.828748 0.926723
vt 0.830566 0.926800
vt 0.830280 0.927103
vt 0.832101 0.929459
vt 0.831767 0.929743
vt 0.831387 0.928209
vt 0.831690 0.927925
vt 0.832101 0.984731
vt 0.831767 0.984447
vt 0.831690 0.986265
vt 0.831387 0.985980
vt 0.773760 0.987800
vt 0.774044 0.987466
vt 0.828748 0.987466
vt 0.829031 0.987800
vt 0.772225 0.987389
vt 0.772511 0.987087
vt 0.830280 0.987087
vt 0.830566 0.987389
vt 0.774953 0.986397
vt 0.827838 0.986397
vt 0.773523 0.986014
vt 0.772476 0.984967
vt 0.772093 0.983537
vt 0.772093 0.930652
vt 0.772476 0.929221
vt 0.773523 0.928175
vt 0.774953 0.927792
vt 0.827838 0.927792
vt 0.829268 0.928175
vt 0.830315 0.929221
vt 0.830698 0.930652
vt 0.830698 0.983537
vt 0.830315 0.984967
vt 0.829268 0.986014
vt 0.820626 0.937864
vt 0.782165 0.937864
vt 0.782165 0.976325
vt 0.820626 0.976325
vt 0.821666 0.937864
vt 0.821666 0.976325
vt 0.781125 0.976325
vt 0.781125 0.937864
vt 0.741926 0.933209
vt 0.742371 0.933653
vt 0.742371 0.992019
vt 0.741926 0.992463
vt 0.683561 0.992463
vt 0.683117 0.992019
vt 0.683117 0.933653
vt 0.683561 0.933209
vt 0.945838 0.865866
vt 0.947329 0.865866
vt 0.840290 0.975978
vt 0.838804 0.975978
vt 0.838804 0.922737
vt 0.840290 0.922737
vt 0.762451 0.895896
vt 0.760960 0.895896
vt 0.869481 0.974557
vt 0.867995 0.974557
vt 0.867995 0.921309
vt 0.869481 0.921309
vt 0.945838 0.919677
vt 0.945838 0.919271
vt 0.947329 0.919271
vt 0.947329 0.919677
vt 0.945838 0.865460
vt 0.947329 0.865460
vt 0.760960 0.896303
vt 0.762451 0.896303
vt 0.760960 0.842486
vt 0.760960 0.842079
vt 0.762451 0.842079
vt 0.762451 0.842486
vn 0.000000 0.000000 1.000000
vn 0.000000 0.000000 1.000000
vn 0.000000 0.000000 1.000000
vn 0.000000 0.000000 1.000000
vn 0.000000 0.000000 -1.000000
vn 0.000000 0.000000 -1.000000
vn 0.000000 0.000000 -1.000000
vn 0.000000 0.000000 -1.000000
vn 1.000000 0.000000 0.000000
vn 1.000000 0.000000 0.000000
vn 1.000000 0.000000 0.000000
vn 1.000000 0.000000 0.000000
vn -1.000000 0.000000 0.000000
vn -1.000000 0.000000 0.000000
vn -1.000000 0.000000 0.000000
vn -1.000000 0.000000 0.000000
vn 0.000000 -1.000000 0.000004
vn 0.000000 -1.000000 0.000002
vn 0.000000 -1.000000 -0.000000
vn 0.000000 -1.000000 -0.000001
vn -0.008203 -0.222229 0.974960
vn -0.005014 -0.735529 0.677475
vn 0.005014 -0.735529 0.677474
vn 0.008203 -0.222230 0.974960
vn -0.484110 -0.292973 0.824503
vn -0.256280 -0.859094 0.443033
vn 0.256279 -0.859091 0.443039
vn 0.484112 -0.292977 0.824500
vn -0.974962 -0.222218 0.008203
vn -0.677496 -0.735510 0.005013
vn -0.443038 -0.859094 0.256270
vn -0.824516 -0.292974 0.484087
vn -0.974962 -0.222219 -0.008203
vn -0.677496 -0.735510 -0.005013
vn -0.824509 -0.292984 -0.484092
vn -0.443034 -0.859094 -0.256277
vn -0.008203 -0.222208 -0.974965
vn -0.005014 -0.735516 -0.677489
vn -0.256279 -0.859094 -0.443033
vn -0.484101 -0.292983 -0.824504
vn 0.008203 -0.222208 -0.974965
vn 0.005014 -0.735516 -0.677488
vn 0.484106 -0.292984 -0.824501
vn 0.256279 -0.859095 -0.443031
vn 0.974962 -0.222222 0.008203
vn 0.677494 -0.735511 0.005013
vn 0.677495 -0.735511 -0.005013
vn 0.974962 -0.222222 -0.008203
vn 0.824514 -0.292976 0.484088
vn 0.443037 -0.859093 0.256277
vn 0.443035 -0.859096 -0.256270
vn 0.824510 -0.292983 -0.484090
vn -0.007213 0.000000 0.999974
vn 0.007213 0.000000 0.999974
vn -0.007212 0.000000 -0.999974
vn 0.007212 0.000000 -0.999974
vn 0.999974 0.000000 0.007213
vn 0.999974 0.000000 -0.007213
vn -0.999974 0.000000 -0.007213
vn -0.999974 0.000000 0.007213
vn -0.965928 0.000000 0.258811
vn -0.499537 0.000000 0.866293
vn -0.707112 0.000000 0.707102
vn 0.499546 0.000000 0.866287
vn 0.707112 0.000000 0.707102
vn 0.965928 0.000000 0.258811
vn -0.866296 0.000001 -0.499530
vn -0.707112 0.000002 -0.707102
vn -0.258810 0.000003 -0.965928
vn 0.258822 0.000005 -0.965925
vn 0.707105 0.000006 -0.707108
vn 0.707105 0.000006 -0.707108
vn 0.965927 0.000000 -0.258815
vn 0.312787 -0.949823 0.001222
vn 0.312787 -0.949823 -0.001222
vn 0.219094 -0.968336 0.119682
vn 0.119679 -0.968334 0.219102
vn 0.001222 -0.949834 0.312751
vn -0.001222 -0.949834 0.312751
vn -0.119679 -0.968335 0.219098
vn -0.219095 -0.968337 0.119672
vn -0.312785 -0.949823 0.001222
vn -0.312785 -0.949823 -0.001222
vn -0.219092 -0.968336 -0.119684
vn -0.119683 -0.968333 -0.219104
vn -0.001222 -0.949832 -0.312758
vn 0.001222 -0.949832 -0.312758
vn 0.119683 -0.968333 -0.219105
vn 0.219092 -0.968336 -0.119685
vn 0.275141 -0.961404 0.000000
vn 0.275141 -0.961404 0.000000
vn 0.275140 -0.961404 0.000000
vn 0.275140 -0.961404 0.000000
vn 0.224172 -0.972698 0.060053
vn 0.224172 -0.972698 0.060053
vn 0.224172 -0.972698 0.060053
vn 0.224172 -0.972698 0.060053
vn 0.144542 -0.978883 0.144551
vn 0.144542 -0.978883 0.144551
vn 0.144542 -0.978883 0.144551
vn 0.144542 -0.978883 0.144551
vn 0.060067 -0.972699 0.224164
vn 0.060067 -0.972699 0.224164
vn 0.060067 -0.972699 0.224164
vn 0.060067 -0.972699 0.224164
vn 0.000000 -0.961403 0.275143
vn 0.000000 -0.961403 0.275143
vn 0.000000 -0.961403 0.275143
vn 0.000000 -0.961403 0.275143
vn -0.060066 -0.972699 0.224163
vn -0.060066 -0.972699 0.224163
vn -0.060066 -0.972699 0.224163
vn -0.060066 -0.972699 0.224163
vn -0.144542 -0.978883 0.144551
vn -0.144542 -0.978883 0.144551
vn -0.144542 -0.978883 0.144551
vn -0.144542 -0.978883 0.144551
vn -0.224171 -0.972698 0.060052
vn -0.224171 -0.972698 0.060052
vn -0.224171 -0.972698 0.060052
vn -0.224171 -0.972698 0.060052
vn -0.275140 -0.961404 0.000000
vn -0.275140 -0.961404 0.000000
vn -0.275140 -0.961404 0.000000
vn -0.275140 -0.961404 0.000000
vn -0.224169 -0.972698 -0.060054
vn -0.224169 -0.972698 -0.060054
vn -0.224169 -0.972698 -0.060054
vn -0.224169 -0.972698 -0.060054
vn -0.144544 -0.978883 -0.144549
vn -0.144544 -0.978883 -0.144549
vn -0.144544 -0.978883 -0.144549
vn -0.144544 -0.978883 -0.144549
vn -0.060066 -0.972699 -0.224164
vn -0.060066 -0.972699 -0.224164
vn -0.060066 -0.972699 -0.224164
vn -0.060066 -0.972699 -0.224164
vn 0.000000 -0.961403 -0.275146
vn 0.000000 -0.961403 -0.275146
vn 0.000000 -0.961403 -0.275146
vn 0.000000 -0.961403 -0.275146
vn 0.060067 -0.972698 -0.224165
vn 0.060067 -0.972698 -0.224165
vn 0.060067 -0.972698 -0.224165
vn 0.060067 -0.972698 -0.224165
vn 0.144545 -0.978885 -0.144537
vn 0.144545 -0.978885 -0.144537
vn 0.144545 -0.978885 -0.144537
vn 0.144545 -0.978885 -0.144537
vn 0.224169 -0.972698 -0.060054
vn 0.224169 -0.972698 -0.060054
vn 0.224169 -0.972698 -0.060054
vn 0.224169 -0.972698 -0.060054
vn 0.000000 -1.000000 -0.000000
vn 0.000000 -1.000000 -0.000001
vn 0.000000 -1.000000 -0.000000
vn 0.000000 -1.000000 -0.000000
vn 0.000000 -1.000000 0.000002
vn 0.000000 -1.000000 -0.000007
vn 0.000000 -1.000000 0.000000
vn 0.000000 -1.000000 0.000000
vn 0.000000 -1.000000 0.000007
vn 0.000000 -1.000000 0.000000
vn 0.000000 -1.000000 0.000000
vn 0.000000 -1.000000 0.000004
vn 0.000000 -1.000000 0.000018
vn 0.000000 -1.000000 0.000018
vn 0.000000 -1.000000 0.000017
vn 0.000000 -1.000000 0.000000
vn 0.000000 -1.000000 0.000000
vn 0.000000 -1.000000 0.000000
vn 0.000000 -1.000000 0.000000
vn 0.000000 -1.000000 0.000018
vn 0.000000 -1.000000 0.000000
vn 0.000000 -1.000000 0.000000
vn 0.000000 -1.000000 0.000000
vn 0.000000 -1.000000 0.000000
vn 0.000000 -1.000000 0.000000
vn 0.000000 -1.000000 0.000000
vn 0.000000 -1.000000 0.000000
vn 0.000000 -1.000000 0.000000
vn -0.707107 0.000000 0.707107
vn -0.707107 0.000000 0.707107
vn -0.707107 0.000000 0.707107
vn -0.707107 0.000000 0.707107
vn 0.707113 0.000000 0.707101
vn 0.707113 0.000000 0.707101
vn 0.707113 0.000000 0.707101
vn 0.707113 0.000000 0.707101
vn -0.707113 0.000000 -0.707101
vn -0.707113 0.000000 -0.707101
vn -0.707113 0.000000 -0.707101
vn -0.707113 0.000000 -0.707101
vn 0.707119 0.000000 -0.707095
vn 0.707119 0.000000 -0.707095
vn 0.707119 0.000000 -0.707095
vn 0.707119 0.000000 -0.707095
s off
g bigVentilation_05 ceilingAndFloor
f 92/111/1 90/110/2 94/97/3 95/98/4
f 100/103/5 97/104/6 102/117/7 104/120/8
f 96/105/9 93/106/10 103/107/11 101/108/12
f 98/99/13 99/100/14 89/101/15 91/102/16
s 1
f 75/27/17 85/85/18 81/81/19 74/26/20
s 2
f 33/33/21 34/34/22 36/35/23 35/36/24
f 34/34/22 33/33/21 51/37/25 52/38/26
f 35/36/24 36/35/23 54/39/27 53/40/28
f 37/41/29 38/42/30 50/43/31 49/44/32
f 38/42/30 37/41/29 39/45/33 40/46/34
f 40/46/34 39/45/33 57/47/35 58/48/36
f 41/49/37 42/50/38 60/51/39 59/52/40
f 42/50/38 41/49/37 43/53/41 44/54/42
f 44/54/42 43/53/41 61/55/43 62/56/44
f 45/57/45 46/58/46 48/59/47 47/60/48
f 46/58/46 45/57/45 55/61/49 56/62/50
f 47/60/48 48/59/47 64/63/51 63/64/52
f 49/44/32 50/43/31 52/38/26 51/37/25
f 53/40/28 54/39/27 56/62/50 55/61/49
f 58/48/36 57/47/35 59/52/40 60/51/39
f 62/56/44 61/55/43 63/64/52 64/63/51
f 4/11/53 33/33/21 35/36/24 6/12/54
f 41/49/37 12/4/55 15/3/56 43/53/41
f 5/15/57 45/57/45 47/60/48 16/16/58
f 11/7/59 39/45/33 37/41/29 1/8/60
f 37/41/29 49/44/32 2/9/61 1/8/60
f 49/44/32 51/37/25 3/10/62 2/9/63
f 51/37/25 33/33/21 4/11/53 3/10/62
f 35/36/24 53/40/28 7/13/64 6/12/54
f 53/40/28 55/61/49 8/14/65 7/13/64
f 55/61/49 45/57/45 5/15/57 8/14/66
f 11/7/59 10/6/67 57/47/35 39/45/33
f 10/6/67 9/5/68 59/52/40 57/47/35
f 9/5/69 12/4/55 41/49/37 59/52/40
f 15/3/56 14/2/70 61/55/43 43/53/41
f 14/2/71 13/1/72 63/64/52 61/55/43
f 13/1/73 16/16/58 47/60/48 63/64/52
f 48/59/47 46/58/46 18/65/74 17/66/75
f 46/58/46 56/62/50 19/67/76 18/65/74
f 56/62/50 54/39/27 20/68/77 19/67/76
f 54/39/27 36/35/23 21/69/78 20/68/77
f 36/35/23 34/34/22 22/70/79 21/69/78
f 34/34/22 52/38/26 23/71/80 22/70/79
f 52/38/26 50/43/31 24/72/81 23/71/80
f 50/43/31 38/42/30 25/73/82 24/72/81
f 38/42/30 40/46/34 26/74/83 25/73/82
f 40/46/34 58/48/36 27/75/84 26/74/83
f 58/48/36 60/51/39 28/76/85 27/75/84
f 60/51/39 42/50/38 29/77/86 28/76/85
f 42/50/38 44/54/42 30/78/87 29/77/86
f 44/54/42 62/56/44 31/79/88 30/78/87
f 62/56/44 64/63/51 32/80/89 31/79/88
f 64/63/51 48/59/47 17/66/75 32/80/89
s off
f 17/66/90 18/65/91 66/18/92 65/17/93
f 18/65/94 19/67/95 67/19/96 66/18/97
f 19/67/98 20/68/99 68/20/100 67/19/101
f 20/68/102 21/69/103 69/21/104 68/20/105
f 21/69/106 22/70/107 70/22/108 69/21/109
f 22/70/110 23/71/111 71/23/112 70/22/113
f 23/71/114 24/72/115 72/24/116 71/23/117
f 24/72/118 25/73/119 73/25/120 72/24/121
f 25/73/122 26/74/123 74/26/124 73/25/125
f 26/74/126 27/75/127 75/27/128 74/26/129
f 27/75/130 28/76/131 76/28/132 75/27/133
f 28/76/134 29/77/135 77/29/136 76/28/137
f 29/77/138 30/78/139 78/30/140 77/29/141
f 30/78/142 31/79/143 79/31/144 78/30/145
f 31/79/146 32/80/147 80/32/148 79/31/149
f 32/80/150 17/66/151 65/17/152 80/32/153
s 1
f 81/81/19 82/82/154 73/25/155 74/26/20
f 65/17/156 84/84/157 86/86/158 80/32/159
f 65/17/156 66/18/160 83/83/161 84/84/157
f 67/19/162 87/87/163 83/83/161 66/18/160
f 73/25/155 82/82/154 88/88/164 72/24/165
f 82/82/154 83/83/161 87/87/163 88/88/164
f 84/84/157 83/83/161 82/82/154 81/81/19
f 85/85/18 86/86/158 84/84/157 81/81/19
f 77/29/166 85/85/18 75/27/17 76/28/167
f 78/30/168 86/86/158 85/85/18 77/29/166
f 80/32/159 86/86/158 78/30/168 79/31/169
f 69/21/170 87/87/163 67/19/162 68/20/171
f 88/88/164 87/87/163 69/21/170 70/22/172
f 72/24/165 88/88/164 70/22/172 71/23/173
s off
f 93/89/174 94/90/175 90/91/176 89/92/177 99/93/178 100/94/179 104/95/180 103/96/181
f 89/109/182 90/110/183 92/111/184 91/112/185
f 94/97/186 93/113/187 96/114/188 95/98/189
f 98/115/190 97/104/191 100/103/192 99/116/193
f 102/117/194 101/118/195 103/119/196 104/120/197
