# File exported by Houdini 15.5.480 (www.sidefx.com)
# 8 points
# 24 vertices
# 6 primitives
# Bounds: [-6.25919151, -1.49011612e-08, -2.73345256] to [6.1930232, 0.144999996, 2.63663554]
g 
v -6.25919151 0.144999996 2.63663554
v -6.25919151 -1.49011612e-08 2.63663554
v -6.25919151 0.144999996 -2.73345256
v -6.25919151 -1.49011612e-08 -2.73345256
v 6.1930232 0.144999996 -2.73345256
v 6.1930232 -1.49011612e-08 -2.73345256
v 6.1930232 0.144999996 2.63663554
v 6.1930232 -1.49011612e-08 2.63663554
vt 0.403309822 0.862698078 0
vt 0.00298210979 0.862698078 0
vt 0.00298210979 0.851888657 0
vt 0.403309822 0.851888657 0
vt 0.00298205018 0.818091452 0
vt 0.996733725 0.818091452 0
vt 0.996733725 0.828188777 0
vt 0.00298205018 0.828188777 0
vt 0.810864568 0.862698078 0
vt 0.410536766 0.862698078 0
vt 0.410536766 0.851888657 0
vt 0.810864568 0.851888657 0
vt 0.00298205018 0.834990084 0
vt 0.996733725 0.834990084 0
vt 0.996733725 0.845087409 0
vt 0.00298205018 0.845087409 0
vt 0.930570126 0.403610229 0
vt 0.00298210979 0.403610229 0
vt 0.00298210979 0.00298210979 0
vt 0.930570126 0.00298210979 0
vt 0.00298210979 0.811164916 0
vt 0.00298210979 0.410536766 0
vt 0.930570126 0.410536766 0
vt 0.930570126 0.811164916 0
vn -0.99999994 0 0
vn -0.99999994 0 0
vn -0.99999994 0 0
vn -0.99999994 0 0
vn 3.0517576e-08 6.12323294e-17 -0.99999994
vn 3.0517576e-08 6.12323294e-17 -0.99999994
vn 3.0517576e-08 6.12323294e-17 -0.99999994
vn 3.0517576e-08 6.12323294e-17 -0.99999994
vn 0.99999994 0 0
vn 0.99999994 0 0
vn 0.99999994 0 0
vn 0.99999994 0 0
vn -3.0517576e-08 -6.12323294e-17 0.99999994
vn -3.0517576e-08 -6.12323294e-17 0.99999994
vn -3.0517576e-08 -6.12323294e-17 0.99999994
vn -3.0517576e-08 -6.12323294e-17 0.99999994
vn 0 0.99999994 6.12323294e-17
vn 0 0.99999994 6.12323294e-17
vn 0 0.99999994 6.12323294e-17
vn 0 0.99999994 6.12323294e-17
vn 0 -0.99999994 -6.12323294e-17
vn 0 -0.99999994 -6.12323294e-17
vn 0 -0.99999994 -6.12323294e-17
vn 0 -0.99999994 -6.12323294e-17
g floor
f 4/1/1 2/2/2 1/3/3 3/4/4
f 6/5/5 4/6/6 3/7/7 5/8/8
f 8/9/9 6/10/10 5/11/11 7/12/12
f 2/13/13 8/14/14 7/15/15 1/16/16
f 5/17/17 3/18/18 1/19/19 7/20/20
f 6/21/21 8/22/22 2/23/23 4/24/24
