# This file uses centimeters as units for non-parametric coordinates.

g default
v -0.913966 0.200326 -2.769396
v 0.122480 0.200326 -2.769396
v -0.913966 2.561674 -2.769396
v 0.122480 2.561674 -2.769396
v 6.037474 0.204820 0.941285
v 6.037474 0.204820 1.903102
v 6.037474 2.985180 0.941285
v 6.037474 2.985180 1.903102
v 0.182480 0.200326 -2.769396
v 1.218927 0.200326 -2.769396
v 0.182480 2.561674 -2.769396
v 1.218927 2.561674 -2.769396
v -3.476637 0.224625 -2.688129
v -2.881697 0.224625 -2.688129
v -3.476637 2.535375 -2.688129
v -2.881697 2.535375 -2.688129
v 6.037474 0.204820 -0.080532
v 6.037474 0.204820 0.881285
v 6.037474 2.985180 -0.080532
v 6.037474 2.985180 0.881285
v -5.505658 0.224625 -2.688129
v -4.591148 0.224625 -2.688129
v -5.505658 2.535375 -2.688129
v -4.591148 2.535375 -2.688129
v -2.524536 0.224625 -2.688129
v -1.589388 0.224625 -2.688129
v -2.524536 2.535375 -2.688129
v -1.589388 2.535375 -2.688129
v 4.568268 0.200326 -2.769396
v 5.604714 0.200326 -2.769396
v 4.568268 2.561674 -2.769396
v 5.604714 2.561674 -2.769396
v 6.037474 0.204820 -2.124167
v 6.037474 0.204820 -1.162350
v 6.037474 2.985180 -2.124167
v 6.037474 2.985180 -1.162350
v 3.471821 0.200326 -2.769396
v 4.508267 0.200326 -2.769396
v 3.471821 2.561674 -2.769396
v 4.508267 2.561674 -2.769396
v 1.278927 0.200326 -2.769396
v 2.315374 0.200326 -2.769396
v 1.278927 2.561674 -2.769396
v 2.315374 2.561674 -2.769396
v 2.375374 0.200326 -2.769396
v 3.411821 0.200326 -2.769396
v 2.375374 2.561674 -2.769396
v 3.411821 2.561674 -2.769396
v 6.037474 0.204820 -1.102350
v 6.037474 0.204820 -0.140532
v 6.037474 2.985180 -1.102350
v 6.037474 2.985180 -0.140532
v -4.491148 0.224625 -2.688129
v -3.576637 0.224625 -2.688129
v -4.491148 2.535375 -2.688129
v -3.576637 2.535375 -2.688129
vt 0.000988 0.000998
vt 0.157984 0.000998
vt 0.157984 0.454832
vt 0.000988 0.454832
vt 0.162043 0.000998
vt 0.319039 0.000998
vt 0.319039 0.454832
vt 0.162043 0.454832
vt 0.323098 0.000998
vt 0.480094 0.000998
vt 0.480094 0.454832
vt 0.323098 0.454832
vt 0.484153 0.000998
vt 0.641149 0.000998
vt 0.641149 0.454832
vt 0.484153 0.454832
vt 0.818648 0.001965
vt 0.987826 0.001965
vt 0.987826 0.387404
vt 0.818648 0.387404
vt 0.645208 0.393269
vt 0.814385 0.393269
vt 0.814385 0.778708
vt 0.645208 0.778708
vt 0.172367 0.462167
vt 0.269478 0.462167
vt 0.269478 0.839348
vt 0.172367 0.839348
vt 0.273543 0.461385
vt 0.422817 0.461385
vt 0.422817 0.838565
vt 0.273543 0.838565
vt 0.549547 0.846359
vt 0.549547 0.999002
vt 0.172367 0.999002
vt 0.172367 0.846359
vt 0.989351 0.784229
vt 0.989351 0.953407
vt 0.603912 0.953407
vt 0.603912 0.784229
vt 0.818648 0.393665
vt 0.987826 0.393665
vt 0.987826 0.779104
vt 0.818648 0.779104
vt 0.000988 0.462168
vt 0.170166 0.462168
vt 0.170166 0.847607
vt 0.000988 0.847607
vt 0.645208 0.002456
vt 0.814385 0.002456
vt 0.814385 0.387896
vt 0.645208 0.387896
vt 0.426338 0.462064
vt 0.575612 0.462064
vt 0.575612 0.839245
vt 0.426338 0.839245
vn 0.000000 0.000000 1.000000
vn 0.000000 0.000000 1.000000
vn 0.000000 0.000000 1.000000
vn 0.000000 0.000000 1.000000
vn -1.000000 0.000000 0.000000
vn -1.000000 0.000000 0.000000
vn -1.000000 0.000000 0.000000
vn -1.000000 0.000000 0.000000
vn 0.000000 0.000000 1.000000
vn 0.000000 0.000000 1.000000
vn 0.000000 0.000000 1.000000
vn 0.000000 0.000000 1.000000
vn 0.000000 0.000000 1.000000
vn 0.000000 0.000000 1.000000
vn 0.000000 0.000000 1.000000
vn 0.000000 0.000000 1.000000
vn -1.000000 0.000000 0.000000
vn -1.000000 0.000000 0.000000
vn -1.000000 0.000000 0.000000
vn -1.000000 0.000000 0.000000
vn 0.000000 0.000000 1.000000
vn 0.000000 0.000000 1.000000
vn 0.000000 0.000000 1.000000
vn 0.000000 0.000000 1.000000
vn 0.000000 0.000000 1.000000
vn 0.000000 0.000000 1.000000
vn 0.000000 0.000000 1.000000
vn 0.000000 0.000000 1.000000
vn 0.000000 0.000000 1.000000
vn 0.000000 0.000000 1.000000
vn 0.000000 0.000000 1.000000
vn 0.000000 0.000000 1.000000
vn -1.000000 0.000000 0.000000
vn -1.000000 0.000000 0.000000
vn -1.000000 0.000000 0.000000
vn -1.000000 0.000000 0.000000
vn 0.000000 0.000000 1.000000
vn 0.000000 0.000000 1.000000
vn 0.000000 0.000000 1.000000
vn 0.000000 0.000000 1.000000
vn 0.000000 0.000000 1.000000
vn 0.000000 0.000000 1.000000
vn 0.000000 0.000000 1.000000
vn 0.000000 0.000000 1.000000
vn 0.000000 0.000000 1.000000
vn 0.000000 0.000000 1.000000
vn 0.000000 0.000000 1.000000
vn 0.000000 0.000000 1.000000
vn -1.000000 0.000000 0.000000
vn -1.000000 0.000000 0.000000
vn -1.000000 0.000000 0.000000
vn -1.000000 0.000000 0.000000
vn 0.000000 0.000000 1.000000
vn 0.000000 0.000000 1.000000
vn 0.000000 0.000000 1.000000
vn 0.000000 0.000000 1.000000
s off
g blinds_GEO
f 1/17/1 2/18/2 4/19/3 3/20/4
f 5/1/5 6/2/6 8/3/7 7/4/8
f 9/21/9 10/22/10 12/23/11 11/24/12
f 13/25/13 14/26/14 16/27/15 15/28/16
f 17/5/17 18/6/18 20/7/19 19/8/20
f 21/29/21 22/30/22 24/31/23 23/32/24
f 25/33/25 26/34/26 28/35/27 27/36/28
f 29/37/29 30/38/30 32/39/31 31/40/32
f 33/9/33 34/10/34 36/11/35 35/12/36
f 37/41/37 38/42/38 40/43/39 39/44/40
f 41/45/41 42/46/42 44/47/43 43/48/44
f 45/49/45 46/50/46 48/51/47 47/52/48
f 49/13/49 50/14/50 52/15/51 51/16/52
f 53/53/53 54/54/54 56/55/55 55/56/56
