# File exported by Houdini 15.5.480 (www.sidefx.com)
# 8 points
# 24 vertices
# 6 primitives
# Bounds: [-4, -0.100000001, -3] to [4, 0, 3]
g 
v -4 0 -3
v 4 0 -3
v 4 0 3
v -4 0 3
v 4 -0.100000001 3
v 4 -0.100000001 -3
v -4 -0.100000001 -3
v -4 -0.100000001 3
vt 0.658033907 0.504999995 0
vt 0.658033907 0.998525441 0
vt 0 0.998525441 0
vt 0 0.504999995 0
vt 0.658033907 0.493525475 0
vt 0 0.493525475 0
vt 0 0 0
vt 0.658033907 0 0
vt 0.708999991 0 0
vt 0.717225432 0 0
vt 0.717225432 0.493525445 0
vt 0.708999991 0.493525445 0
vt 0.66900003 0 0
vt 0.677225411 0 0
vt 0.677225411 0.658033907 0
vt 0.66900003 0.658033907 0
vt 0.728999972 0 0
vt 0.737225413 0 0
vt 0.737225413 0.493525445 0
vt 0.728999972 0.493525445 0
vt 0.68900001 0 0
vt 0.697225392 0 0
vt 0.697225392 0.658033907 0
vt 0.68900001 0.658033907 0
vn 0 1 0
vn 0 1 0
vn 0 1 0
vn 0 1 0
vn 0 -1 0
vn 0 -1 0
vn 0 -1 0
vn 0 -1 0
vn 1 0 0
vn 1 0 0
vn 1 0 0
vn 1 0 0
vn 0 0 -1
vn 0 0 -1
vn 0 0 -1
vn 0 0 -1
vn -1 0 0
vn -1 0 0
vn -1 0 0
vn -1 0 0
vn 0 0 1
vn 0 0 1
vn 0 0 1
vn 0 0 1
g 
f 3/1/1 2/2/2 1/3/3 4/4/4
f 5/5/5 8/6/6 7/7/7 6/8/8
f 3/9/9 5/10/10 6/11/11 2/12/12
f 2/13/13 6/14/14 7/15/15 1/16/16
f 1/17/17 7/18/18 8/19/19 4/20/20
f 4/21/21 8/22/22 5/23/23 3/24/24
