# This file uses centimeters as units for non-parametric coordinates.

mtllib interior.mtl
g default
v -6.423779 0.145000 2.733452
v -6.423779 0.145000 -2.733453
v 6.230135 0.145000 -2.733453
v 6.230135 0.145000 2.733452
v -6.083313 0.145000 1.852422
v -6.083313 0.145000 2.381685
v -6.083313 3.045000 1.852422
v -6.083313 3.045000 2.381685
v -6.083313 2.832000 2.381685
v -6.083313 2.832000 1.852422
v -6.423779 2.832000 1.852422
v -6.083313 1.145000 2.381685
v -6.083313 1.145000 1.852422
v -6.423779 1.145000 1.852422
v -6.423779 2.832000 -2.031533
v -6.083313 3.045000 -2.031533
v -6.083313 2.832000 -2.031533
v -6.423779 1.145000 -2.031533
v -6.083313 1.145000 -2.031533
v -6.083313 0.145000 -2.031533
v -6.083313 3.045000 -2.733453
v -6.083313 2.832000 -2.733453
v -6.083313 1.145000 -2.733453
v -6.083313 0.145000 -2.733453
v -2.831697 0.145000 -2.612416
v -2.831697 2.615000 -2.612416
v -2.574536 0.145000 -2.612416
v -2.574536 2.615000 -2.612416
v -2.574536 0.145000 -2.733453
v -2.574536 2.615000 -2.733453
v -2.831697 0.145000 -2.733453
v -2.831697 2.615000 -2.733453
v -5.555658 2.617000 -2.152554
v -5.555658 3.047000 -2.152554
v 5.634715 2.617000 -2.152554
v 5.634715 3.047000 -2.152554
v 5.634715 2.617000 -2.735066
v -5.555658 2.617000 -2.735066
v 6.230135 3.047000 -2.152554
v 6.230135 2.617000 -2.152554
v 5.634715 0.145000 -2.152554
v 5.634715 0.145000 -2.735066
v 6.230135 0.145000 -2.152554
v -0.943966 2.617000 -2.152554
v -0.943966 3.047000 -2.152554
v -0.943966 2.617000 -2.735066
v -1.539388 2.617000 -2.152554
v -1.539388 3.047000 -2.152554
v -1.539388 2.617000 -2.735066
v -0.943966 0.145000 -2.735066
v -0.943966 0.145000 -2.152554
v -1.539388 0.145000 -2.152554
v -1.539388 0.145000 -2.735066
v -6.083313 3.047000 -2.152554
v -6.083313 2.617000 -2.152554
v -5.555658 0.145000 -2.735066
v -5.555658 0.145000 -2.152554
v -6.083308 0.145000 -2.152554
v 5.729918 0.145000 2.381685
v 5.729918 3.045000 2.381685
v 6.230135 0.145000 2.381685
v 6.230135 3.045000 2.381685
v 6.230135 0.145000 1.933102
v 6.230135 3.045000 1.933102
v 5.729918 0.145000 1.933102
v 5.729918 3.045000 1.933102
v -1.473431 0.145000 2.381685
v -1.473431 3.045000 2.381685
v -1.023033 0.145000 2.381685
v -1.023033 3.045000 2.381685
v -1.023033 0.145000 1.934716
v -1.023033 3.045000 1.934716
v -1.473431 0.145000 1.934716
v -1.473431 3.045000 1.934716
v -5.637952 0.145000 2.381685
v -5.637952 3.045000 2.381685
v -5.637952 0.145000 1.929875
v -5.637952 3.045000 1.929875
v -6.086535 0.145000 1.929875
v -6.086535 3.045000 1.929875
v 6.230135 0.145000 2.381685
v 6.230135 3.045000 2.381685
v 5.483980 0.145000 2.381685
v 5.483980 3.045000 2.381685
v 5.483980 2.832000 2.733452
v 6.230135 2.832000 2.381685
v 5.483980 2.832000 2.381685
v 5.483980 1.145000 2.733452
v 6.230135 1.145000 2.381685
v 5.483980 1.145000 2.381685
v 3.416003 3.045000 2.381685
v 3.416003 2.832000 2.381685
v 3.416003 2.832000 2.733452
v 3.416003 1.145000 2.381685
v 3.416003 1.145000 2.733452
v 3.416003 0.145000 2.381685
v 2.465312 3.045000 2.381685
v 2.465312 2.832000 2.381685
v 2.465312 2.832000 2.733452
v 2.465312 1.145000 2.381685
v 2.465312 1.145000 2.733452
v 2.465312 0.145000 2.381685
v -0.593813 3.045000 2.381685
v -0.593813 2.832000 2.381685
v -0.593813 2.832000 2.733452
v -0.593813 1.145000 2.381685
v -0.593813 1.145000 2.733452
v -0.593813 0.145000 2.381685
v -6.083313 3.045000 2.381685
v -6.083313 2.832000 2.381685
v -6.083313 1.145000 2.381685
v -6.083313 0.145000 2.381685
v -6.423779 3.045000 2.733452
v -6.423779 3.045000 -2.733453
v 6.230135 3.045000 -2.733453
v 6.230135 3.045000 2.733452
v 6.230135 3.091861 2.733452
v 6.230135 3.091861 -2.733453
v -6.423779 3.091861 2.733452
v -6.423779 3.091861 -2.733453
vt 0.308273 0.002010
vt 0.308273 0.721920
vt 0.001992 0.721920
vt 0.001992 0.002010
vt 0.967397 0.967897
vt 0.979330 0.967897
vt 0.979330 0.998008
vt 0.967397 0.998008
vt 0.872883 0.967897
vt 0.872883 0.998008
vt 0.537421 0.825291
vt 0.537421 0.729316
vt 0.556495 0.729316
vt 0.556495 0.825291
vt 0.816859 0.967897
vt 0.816859 0.998008
vt 0.967397 0.746931
vt 0.979330 0.746931
vt 0.685467 0.931581
vt 0.666392 0.931581
vt 0.666392 0.710619
vt 0.685467 0.710619
vt 0.791455 0.710261
vt 0.810530 0.710261
vt 0.810530 0.931225
vt 0.791455 0.931225
vt 0.816859 0.746931
vt 0.872883 0.746931
vt 0.967397 0.706998
vt 0.979330 0.706998
vt 0.816859 0.706998
vt 0.872883 0.706998
vt 0.449019 0.825379
vt 0.429944 0.825379
vt 0.429944 0.729402
vt 0.449019 0.729402
vt 0.361244 0.871190
vt 0.346836 0.871190
vt 0.346836 0.730667
vt 0.361244 0.730667
vt 0.368025 0.871190
vt 0.368025 0.730667
vt 0.340055 0.871190
vt 0.340055 0.730667
vt 0.935811 0.672583
vt 0.935811 0.444089
vt 0.959901 0.444089
vt 0.959901 0.672583
vt 0.627310 0.710834
vt 0.659945 0.710834
vt 0.659945 0.939325
vt 0.627310 0.939325
vt 0.959901 0.035940
vt 0.935811 0.035940
vt 0.935811 0.002065
vt 0.959901 0.002065
vt 0.261891 0.730436
vt 0.294525 0.730436
vt 0.294526 0.871073
vt 0.261891 0.871073
vt 0.797318 0.035940
vt 0.797318 0.002065
vt 0.935811 0.410215
vt 0.959901 0.410215
vt 0.965373 0.006025
vt 0.998008 0.006025
vt 0.998008 0.380301
vt 0.965373 0.380301
vt 0.222809 0.729176
vt 0.255444 0.729176
vt 0.255443 0.869812
vt 0.222808 0.869812
vt 0.797318 0.444089
vt 0.797318 0.410214
vt 0.300973 0.729151
vt 0.333608 0.729151
vt 0.333608 0.869787
vt 0.300973 0.869787
vt 0.959901 0.702603
vt 0.935811 0.702603
vt 0.779145 0.850831
vt 0.746511 0.850831
vt 0.746511 0.710193
vt 0.779145 0.710193
vt 0.797318 0.702602
vt 0.797318 0.672583
vt 0.083172 0.893317
vt 0.055148 0.893317
vt 0.055148 0.728330
vt 0.083173 0.728330
vt 0.030017 0.893317
vt 0.001993 0.893317
vt 0.001992 0.728330
vt 0.030017 0.728330
vt 0.138248 0.729400
vt 0.163290 0.729400
vt 0.163289 0.894387
vt 0.138248 0.894387
vt 0.113015 0.729400
vt 0.113015 0.894387
vt 0.087974 0.729400
vt 0.087974 0.894387
vt 0.193224 0.728395
vt 0.218537 0.728395
vt 0.218537 0.893381
vt 0.193225 0.893381
vt 0.168093 0.728395
vt 0.168093 0.893381
vt 0.627310 0.044442
vt 0.627310 0.001992
vt 0.639243 0.001992
vt 0.639243 0.044442
vt 0.733756 0.001992
vt 0.733756 0.044442
vt 0.502413 0.825335
vt 0.482706 0.825335
vt 0.482706 0.729360
vt 0.502413 0.729360
vt 0.789781 0.001992
vt 0.789781 0.044442
vt 0.639243 0.162094
vt 0.627310 0.162094
vt 0.402587 0.730186
vt 0.422294 0.730186
vt 0.422294 0.847835
vt 0.402587 0.847835
vt 0.375229 0.730076
vt 0.394937 0.730076
vt 0.394937 0.847726
vt 0.375229 0.847726
vt 0.789781 0.162094
vt 0.733756 0.162094
vt 0.639243 0.216181
vt 0.627310 0.216181
vt 0.789781 0.216181
vt 0.733756 0.216181
vt 0.529770 0.825332
vt 0.510063 0.825332
vt 0.510063 0.729357
vt 0.529770 0.729357
vt 0.475055 0.825336
vt 0.455348 0.825336
vt 0.455348 0.729360
vt 0.475055 0.729360
vt 0.639243 0.390221
vt 0.627310 0.390221
vt 0.691796 0.709719
vt 0.711503 0.709719
vt 0.711503 0.883759
vt 0.691796 0.883759
vt 0.719153 0.710371
vt 0.738860 0.710371
vt 0.738860 0.884406
vt 0.719153 0.884406
vt 0.789781 0.390221
vt 0.733756 0.390221
vt 0.639243 0.702530
vt 0.627310 0.702530
vt 0.789781 0.702530
vt 0.733756 0.702530
vt 0.582531 0.825422
vt 0.562824 0.825422
vt 0.562824 0.729447
vt 0.582531 0.729447
vt 0.000086 0.000009
vt 0.000086 0.000201
vt 0.000003 0.000201
vt 0.000003 0.000009
vt 0.314652 0.002010
vt 0.620933 0.002010
vt 0.620933 0.721920
vt 0.314652 0.721920
vt 0.000092 0.000009
vt 0.000093 0.000009
vt 0.000093 0.000092
vt 0.000092 0.000092
vt 0.000088 0.000009
vt 0.000088 0.000009
vt 0.000088 0.000201
vt 0.000088 0.000201
vt 0.000094 0.000009
vt 0.000095 0.000009
vt 0.000095 0.000092
vt 0.000094 0.000092
vt 0.000090 0.000201
vt 0.000090 0.000201
vt 0.000090 0.000009
vt 0.000090 0.000009
vn 0.000000 1.000000 0.000000
vn 0.000000 1.000000 0.000000
vn 0.000000 1.000000 0.000000
vn 0.000000 1.000000 0.000000
vn 1.000000 0.000000 0.000000
vn 1.000000 0.000000 0.000000
vn 1.000000 0.000000 0.000000
vn 1.000000 0.000000 0.000000
vn 1.000000 0.000000 0.000000
vn 1.000000 0.000000 0.000000
vn 1.000000 0.000000 0.000000
vn 1.000000 0.000000 0.000000
vn 0.000000 0.000000 -1.000000
vn 0.000000 0.000000 -1.000000
vn 0.000000 0.000000 -1.000000
vn 0.000000 0.000000 -1.000000
vn 1.000000 0.000000 0.000000
vn 1.000000 0.000000 0.000000
vn 1.000000 0.000000 0.000000
vn 1.000000 0.000000 0.000000
vn 1.000000 0.000000 0.000000
vn 1.000000 0.000000 0.000000
vn 1.000000 0.000000 0.000000
vn 1.000000 0.000000 0.000000
vn 0.000000 -1.000000 0.000000
vn 0.000000 -1.000000 0.000000
vn 0.000000 -1.000000 0.000000
vn 0.000000 -1.000000 0.000000
vn 0.000000 1.000000 0.000000
vn 0.000000 1.000000 0.000000
vn 0.000000 1.000000 0.000000
vn 0.000000 1.000000 0.000000
vn 1.000000 -0.000000 0.000000
vn 1.000000 -0.000000 0.000000
vn 1.000000 -0.000000 0.000000
vn 1.000000 -0.000000 0.000000
vn 1.000000 0.000000 0.000000
vn 1.000000 0.000000 0.000000
vn 1.000000 0.000000 0.000000
vn 1.000000 0.000000 0.000000
vn 1.000000 0.000000 0.000000
vn 1.000000 0.000000 0.000000
vn 1.000000 0.000000 0.000000
vn 1.000000 0.000000 0.000000
vn 1.000000 0.000000 0.000000
vn 1.000000 0.000000 0.000000
vn 1.000000 0.000000 0.000000
vn 1.000000 0.000000 0.000000
vn 0.000000 0.000000 1.000000
vn 0.000000 0.000000 1.000000
vn 0.000000 0.000000 1.000000
vn 0.000000 0.000000 1.000000
vn 0.000000 0.000000 1.000000
vn 0.000000 0.000000 1.000000
vn 0.000000 0.000000 1.000000
vn 0.000000 0.000000 1.000000
vn 1.000000 0.000000 0.000000
vn 1.000000 0.000000 0.000000
vn 1.000000 0.000000 0.000000
vn 1.000000 0.000000 0.000000
vn -1.000000 0.000000 0.000000
vn -1.000000 0.000000 0.000000
vn -1.000000 0.000000 0.000000
vn -1.000000 0.000000 0.000000
vn 0.000000 0.000000 1.000000
vn 0.000000 0.000000 1.000000
vn 0.000000 0.000000 1.000000
vn 0.000000 0.000000 1.000000
vn 0.000000 -1.000000 0.000000
vn 0.000000 -1.000000 0.000000
vn 0.000000 -1.000000 0.000000
vn 0.000000 -1.000000 0.000000
vn 0.000000 0.000000 1.000000
vn 0.000000 0.000000 1.000000
vn 0.000000 0.000000 1.000000
vn 0.000000 0.000000 1.000000
vn -1.000000 0.000000 0.000000
vn -1.000000 0.000000 0.000000
vn -1.000000 0.000000 0.000000
vn -1.000000 0.000000 0.000000
vn 0.000000 0.000000 1.000000
vn 0.000000 0.000000 1.000000
vn 0.000000 0.000000 1.000000
vn 0.000000 0.000000 1.000000
vn 0.000000 0.000000 1.000000
vn 0.000000 0.000000 1.000000
vn 0.000000 0.000000 1.000000
vn 0.000000 0.000000 1.000000
vn 0.000000 -1.000000 0.000000
vn 0.000000 -1.000000 0.000000
vn 0.000000 -1.000000 0.000000
vn 0.000000 -1.000000 0.000000
vn -0.000000 0.000000 1.000000
vn -0.000000 0.000000 1.000000
vn -0.000000 0.000000 1.000000
vn -0.000000 0.000000 1.000000
vn 1.000000 0.000000 0.000000
vn 1.000000 0.000000 0.000000
vn 1.000000 0.000000 0.000000
vn 1.000000 0.000000 0.000000
vn 0.000000 0.000000 1.000000
vn 0.000000 0.000000 1.000000
vn 0.000000 0.000000 1.000000
vn 0.000000 0.000000 1.000000
vn -1.000000 0.000000 0.000000
vn -1.000000 0.000000 0.000000
vn -1.000000 0.000000 0.000000
vn -1.000000 0.000000 0.000000
vn 0.000000 0.000000 1.000000
vn 0.000000 0.000000 1.000000
vn 0.000000 0.000000 1.000000
vn 0.000000 0.000000 1.000000
vn 1.000000 0.000000 0.000000
vn 1.000000 0.000000 0.000000
vn 1.000000 0.000000 0.000000
vn 1.000000 0.000000 0.000000
vn 0.000000 0.000000 1.000000
vn 0.000000 0.000000 1.000000
vn 0.000000 0.000000 1.000000
vn 0.000000 0.000000 1.000000
vn 0.000000 0.000000 1.000000
vn 0.000000 0.000000 1.000000
vn 0.000000 0.000000 1.000000
vn 0.000000 0.000000 1.000000
vn 0.000000 0.000000 -1.000000
vn 0.000000 0.000000 -1.000000
vn 0.000000 0.000000 -1.000000
vn 0.000000 0.000000 -1.000000
vn -1.000000 0.000000 0.000000
vn -1.000000 0.000000 0.000000
vn -1.000000 0.000000 0.000000
vn -1.000000 0.000000 0.000000
vn 1.000000 0.000000 0.000000
vn 1.000000 0.000000 0.000000
vn 1.000000 0.000000 0.000000
vn 1.000000 0.000000 0.000000
vn 0.000000 0.000000 -1.000000
vn 0.000000 0.000000 -1.000000
vn 0.000000 0.000000 -1.000000
vn 0.000000 0.000000 -1.000000
vn -1.000000 0.000000 0.000000
vn -1.000000 0.000000 0.000000
vn -1.000000 0.000000 0.000000
vn -1.000000 0.000000 0.000000
vn 1.000000 0.000000 0.000000
vn 1.000000 0.000000 0.000000
vn 1.000000 0.000000 0.000000
vn 1.000000 0.000000 0.000000
vn 0.000000 0.000000 -1.000000
vn 0.000000 0.000000 -1.000000
vn 0.000000 0.000000 -1.000000
vn 0.000000 0.000000 -1.000000
vn 0.000000 0.000000 -1.000000
vn 0.000000 0.000000 -1.000000
vn 0.000000 0.000000 -1.000000
vn 0.000000 0.000000 -1.000000
vn 0.000000 0.000000 -1.000000
vn 0.000000 0.000000 -1.000000
vn 0.000000 0.000000 -1.000000
vn 0.000000 0.000000 -1.000000
vn -1.000000 0.000000 0.000000
vn -1.000000 0.000000 0.000000
vn -1.000000 0.000000 0.000000
vn -1.000000 0.000000 0.000000
vn 0.000000 0.000000 -1.000000
vn 0.000000 0.000000 -1.000000
vn 0.000000 0.000000 -1.000000
vn 0.000000 0.000000 -1.000000
vn 0.000000 0.000000 -1.000000
vn 0.000000 0.000000 -1.000000
vn 0.000000 0.000000 -1.000000
vn 0.000000 0.000000 -1.000000
vn 0.000000 -1.000000 0.000000
vn 0.000000 -1.000000 0.000000
vn 0.000000 -1.000000 0.000000
vn 0.000000 -1.000000 0.000000
vn 0.000000 1.000000 0.000000
vn 0.000000 1.000000 0.000000
vn 0.000000 1.000000 0.000000
vn 0.000000 1.000000 0.000000
vn 0.000000 0.000000 -1.000000
vn 0.000000 0.000000 -1.000000
vn 0.000000 0.000000 -1.000000
vn 0.000000 0.000000 -1.000000
vn 0.000000 0.000000 -1.000000
vn 0.000000 0.000000 -1.000000
vn 0.000000 0.000000 -1.000000
vn 0.000000 0.000000 -1.000000
vn 0.000000 0.000000 -1.000000
vn 0.000000 0.000000 -1.000000
vn 0.000000 0.000000 -1.000000
vn 0.000000 0.000000 -1.000000
vn -1.000000 0.000000 0.000000
vn -1.000000 0.000000 0.000000
vn -1.000000 0.000000 0.000000
vn -1.000000 0.000000 0.000000
vn 0.000000 0.000000 -1.000000
vn 0.000000 0.000000 -1.000000
vn 0.000000 0.000000 -1.000000
vn 0.000000 0.000000 -1.000000
vn 1.000000 0.000000 0.000000
vn 1.000000 0.000000 0.000000
vn 1.000000 0.000000 0.000000
vn 1.000000 0.000000 0.000000
vn 0.000000 0.000000 -1.000000
vn 0.000000 0.000000 -1.000000
vn 0.000000 0.000000 -1.000000
vn 0.000000 0.000000 -1.000000
vn 0.000000 -1.000000 0.000000
vn 0.000000 -1.000000 0.000000
vn 0.000000 -1.000000 0.000000
vn 0.000000 -1.000000 0.000000
vn 0.000000 1.000000 0.000000
vn 0.000000 1.000000 0.000000
vn 0.000000 1.000000 0.000000
vn 0.000000 1.000000 0.000000
vn 0.000000 0.000000 -1.000000
vn 0.000000 0.000000 -1.000000
vn 0.000000 0.000000 -1.000000
vn 0.000000 0.000000 -1.000000
vn 0.000000 0.000000 -1.000000
vn 0.000000 0.000000 -1.000000
vn 0.000000 0.000000 -1.000000
vn 0.000000 0.000000 -1.000000
vn 0.000000 0.000000 -1.000000
vn 0.000000 0.000000 -1.000000
vn 0.000000 0.000000 -1.000000
vn 0.000000 0.000000 -1.000000
vn 0.000000 0.000000 -1.000000
vn 0.000000 0.000000 -1.000000
vn 0.000000 0.000000 -1.000000
vn 0.000000 0.000000 -1.000000
vn 1.000000 0.000000 0.000000
vn 1.000000 0.000000 0.000000
vn 1.000000 0.000000 0.000000
vn 1.000000 0.000000 0.000000
vn 0.000000 1.000000 0.000000
vn 0.000000 1.000000 0.000000
vn 0.000000 1.000000 0.000000
vn 0.000000 1.000000 0.000000
vn 0.000000 -1.000000 0.000000
vn 0.000000 -1.000000 0.000000
vn 0.000000 -1.000000 0.000000
vn 0.000000 -1.000000 0.000000
vn 1.000000 0.000000 0.000000
vn 1.000000 0.000000 0.000000
vn 1.000000 0.000000 0.000000
vn 1.000000 0.000000 0.000000
vn 0.000000 0.000000 1.000000
vn 0.000000 0.000000 1.000000
vn 0.000000 0.000000 1.000000
vn 0.000000 0.000000 1.000000
vn -1.000000 0.000000 0.000000
vn -1.000000 0.000000 0.000000
vn -1.000000 0.000000 0.000000
vn -1.000000 0.000000 0.000000
vn 0.000000 0.000000 -1.000000
vn 0.000000 0.000000 -1.000000
vn 0.000000 0.000000 -1.000000
vn 0.000000 0.000000 -1.000000
s off
g interior
usemtl VRayMtl3SG
f 3/1/1 2/2/2 1/3/3 4/4/4
usemtl VRayMtl2SG
f 10/5/5 7/6/6 8/7/7 9/8/8
f 13/9/9 10/5/10 9/8/11 12/10/12
f 14/11/13 11/12/14 10/13/15 13/14/16
f 5/15/17 13/9/18 12/10/19 6/16/20
f 7/6/21 10/5/22 17/17/23 16/18/24
f 10/19/25 11/20/26 15/21/27 17/22/28
f 14/23/29 13/24/30 19/25/31 18/26/32
f 13/9/33 5/15/34 20/27/35 19/28/36
f 16/18/37 17/17/38 22/29/39 21/30/40
f 19/28/41 20/27/42 24/31/43 23/32/44
f 22/29/45 17/17/46 19/28/47 23/32/48
f 17/33/49 15/34/50 18/35/51 19/36/52
f 28/37/53 26/38/54 25/39/55 27/40/56
f 30/41/57 28/37/58 27/40/59 29/42/60
f 26/38/61 32/43/62 31/44/63 25/39/64
f 33/45/65 47/46/66 48/47/67 34/48/68
f 49/49/69 47/50/70 33/51/71 38/52/72
f 36/53/73 35/54/74 40/55/75 39/56/76
f 35/57/77 37/58/78 42/59/79 41/60/80
f 40/55/81 35/54/82 41/61/83 43/62/84
f 44/63/85 35/54/86 36/53/87 45/64/88
f 37/65/89 35/66/90 44/67/91 46/68/92
f 47/46/93 44/63/94 45/64/95 48/47/96
f 46/69/97 44/70/98 51/71/99 50/72/100
f 44/63/101 47/46/102 52/73/103 51/74/104
f 47/75/105 49/76/106 53/77/107 52/78/108
f 33/45/109 34/48/110 54/79/111 55/80/112
f 38/81/113 33/82/114 57/83/115 56/84/116
f 33/45/117 55/80/118 58/85/119 57/86/120
f 62/87/121 60/88/122 59/89/123 61/90/124
f 66/91/125 64/92/126 63/93/127 65/94/128
f 60/88/129 66/91/130 65/94/131 59/89/132
f 72/95/133 70/96/134 69/97/135 71/98/136
f 74/99/137 72/95/138 71/98/139 73/100/140
f 68/101/141 74/99/142 73/100/143 67/102/144
f 78/103/145 76/104/146 75/105/147 77/106/148
f 80/107/149 78/103/150 77/106/151 79/108/152
f 84/109/153 82/110/154 86/111/155 87/112/156
f 87/112/157 86/111/158 89/113/159 90/114/160
f 85/115/161 87/116/162 90/117/163 88/118/164
f 90/114/165 89/113/166 81/119/167 83/120/168
f 84/109/169 87/112/170 92/121/171 91/122/172
f 87/123/173 85/124/174 93/125/175 92/126/176
f 88/127/177 90/128/178 94/129/179 95/130/180
f 90/114/181 83/120/182 96/131/183 94/132/184
f 91/122/185 92/121/186 98/133/187 97/134/188
f 94/132/189 96/131/190 102/135/191 100/136/192
f 99/137/193 98/138/194 100/139/195 101/140/196
f 98/133/197 92/121/198 94/132/199 100/136/200
f 92/141/201 93/142/202 95/143/203 94/144/204
f 97/134/205 98/133/206 104/145/207 103/146/208
f 98/147/209 99/148/210 105/149/211 104/150/212
f 101/151/213 100/152/214 106/153/215 107/154/216
f 100/136/217 102/135/218 108/155/219 106/156/220
f 103/146/221 104/145/222 110/157/223 109/158/224
f 106/156/225 108/155/226 112/159/227 111/160/228
f 110/157/229 104/145/230 106/156/231 111/160/232
f 104/161/233 105/162/234 107/163/235 106/164/236
f 118/165/237 120/166/238 119/167/239 117/168/240
f 115/169/241 116/170/242 113/171/243 114/172/244
f 115/173/245 118/174/246 117/175/247 116/176/248
f 116/177/249 117/178/250 119/179/251 113/180/252
f 113/181/253 119/182/254 120/183/255 114/184/256
f 114/185/257 120/186/258 118/187/259 115/188/260
