# This file uses centimeters as units for non-parametric coordinates.

g default
v -6.423779 0.145000 2.733452
v -6.423779 0.145000 -2.733453
v 6.230135 0.145000 -2.733453
v 6.230135 0.145000 2.733452
v -6.083313 0.145000 1.852422
v -6.083313 0.145000 2.381685
v -6.083313 3.045000 1.852422
v -6.083313 3.045000 2.381685
v -6.083313 2.832000 2.381685
v -6.083313 2.832000 1.852422
v -6.423779 2.832000 1.852422
v -6.083313 1.145000 2.381685
v -6.083313 1.145000 1.852422
v -6.423779 1.145000 1.852422
v -6.423779 2.832000 -2.031533
v -6.083313 3.045000 -2.031533
v -6.083313 2.832000 -2.031533
v -6.423779 1.145000 -2.031533
v -6.083313 1.145000 -2.031533
v -6.083313 0.145000 -2.031533
v -6.083313 3.045000 -2.733453
v -6.083313 2.832000 -2.733453
v -6.083313 1.145000 -2.733453
v -6.083313 0.145000 -2.733453
v -2.831697 0.145000 -2.612416
v -2.831697 2.615000 -2.612416
v -2.574536 0.145000 -2.612416
v -2.574536 2.615000 -2.612416
v -2.574536 0.145000 -2.733453
v -2.574536 2.615000 -2.733453
v -2.831697 0.145000 -2.733453
v -2.831697 2.615000 -2.733453
v -5.555658 2.617000 -2.152554
v -5.555658 3.047000 -2.152554
v 5.634715 2.617000 -2.152554
v 5.634715 3.047000 -2.152554
v 5.634715 2.617000 -2.735066
v -5.555658 2.617000 -2.735066
v 6.230135 3.047000 -2.152554
v 6.230135 2.617000 -2.152554
v 5.634715 0.145000 -2.152554
v 5.634715 0.145000 -2.735066
v 6.230135 0.145000 -2.152554
v -0.943966 2.617000 -2.152554
v -0.943966 3.047000 -2.152554
v -0.943966 2.617000 -2.735066
v -1.539388 2.617000 -2.152554
v -1.539388 3.047000 -2.152554
v -1.539388 2.617000 -2.735066
v -0.943966 0.145000 -2.735066
v -0.943966 0.145000 -2.152554
v -1.539388 0.145000 -2.152554
v -1.539388 0.145000 -2.735066
v -6.083313 3.047000 -2.152554
v -6.083313 2.617000 -2.152554
v -5.555658 0.145000 -2.735066
v -5.555658 0.145000 -2.152554
v -6.083308 0.145000 -2.152554
v 5.729918 0.145000 2.381685
v 5.729918 3.045000 2.381685
v 6.230135 0.145000 2.381685
v 6.230135 3.045000 2.381685
v 6.230135 0.145000 1.933102
v 6.230135 3.045000 1.933102
v 5.729918 0.145000 1.933102
v 5.729918 3.045000 1.933102
v -1.473431 0.145000 2.381685
v -1.473431 3.045000 2.381685
v -1.023033 0.145000 2.381685
v -1.023033 3.045000 2.381685
v -1.023033 0.145000 1.934716
v -1.023033 3.045000 1.934716
v -1.473431 0.145000 1.934716
v -1.473431 3.045000 1.934716
v -5.637952 0.145000 2.381685
v -5.637952 3.045000 2.381685
v -5.637952 0.145000 1.929875
v -5.637952 3.045000 1.929875
v -6.086535 0.145000 1.929875
v -6.086535 3.045000 1.929875
v 6.230135 0.145000 2.381685
v 6.230135 3.045000 2.381685
v 5.483980 0.145000 2.381685
v 5.483980 3.045000 2.381685
v 5.483980 2.832000 2.733452
v 6.230135 2.832000 2.381685
v 5.483980 2.832000 2.381685
v 5.483980 1.145000 2.733452
v 6.230135 1.145000 2.381685
v 5.483980 1.145000 2.381685
v 3.416003 3.045000 2.381685
v 3.416003 2.832000 2.381685
v 3.416003 2.832000 2.733452
v 3.416003 1.145000 2.381685
v 3.416003 1.145000 2.733452
v 3.416003 0.145000 2.381685
v 2.465312 3.045000 2.381685
v 2.465312 2.832000 2.381685
v 2.465312 2.832000 2.733452
v 2.465312 1.145000 2.381685
v 2.465312 1.145000 2.733452
v 2.465312 0.145000 2.381685
v -0.593813 3.045000 2.381685
v -0.593813 2.832000 2.381685
v -0.593813 2.832000 2.733452
v -0.593813 1.145000 2.381685
v -0.593813 1.145000 2.733452
v -0.593813 0.145000 2.381685
v -6.083313 3.045000 2.381685
v -6.083313 2.832000 2.381685
v -6.083313 1.145000 2.381685
v -6.083313 0.145000 2.381685
v -6.423779 3.090063 2.733452
v -6.423779 3.090063 -2.733453
v 6.230135 3.090063 -2.733453
v 6.230135 3.090063 2.733452
vt 0.349809 0.002613
vt 0.349809 0.820152
vt 0.001992 0.820152
vt 0.001992 0.002613
vt 0.951070 0.298197
vt 0.964622 0.298197
vt 0.964622 0.332392
vt 0.951070 0.332392
vt 0.843739 0.298197
vt 0.843739 0.332392
vt 0.633484 0.910114
vt 0.633484 0.801122
vt 0.655145 0.801122
vt 0.655145 0.910114
vt 0.780117 0.298197
vt 0.780117 0.332392
vt 0.951070 0.047265
vt 0.964622 0.047265
vt 0.991424 0.511379
vt 0.969763 0.511379
vt 0.969763 0.260450
vt 0.991424 0.260450
vt 0.969763 0.001981
vt 0.991424 0.001981
vt 0.991424 0.252912
vt 0.969763 0.252912
vt 0.780117 0.047265
vt 0.843739 0.047265
vt 0.951070 0.001916
vt 0.964622 0.001916
vt 0.780117 0.001916
vt 0.843739 0.001916
vt 0.600402 0.910205
vt 0.578741 0.910205
vt 0.578741 0.801213
vt 0.600402 0.801213
vt 0.804179 0.959926
vt 0.787818 0.959926
vt 0.787818 0.800345
vt 0.804179 0.800345
vt 0.811879 0.959926
vt 0.811880 0.800345
vt 0.780117 0.959926
vt 0.780117 0.800345
vt 0.704733 0.764005
vt 0.704733 0.504524
vt 0.732090 0.504525
vt 0.732091 0.764005
vt 0.780117 0.339493
vt 0.817178 0.339493
vt 0.817178 0.598973
vt 0.780117 0.598973
vt 0.732091 0.041025
vt 0.704733 0.041025
vt 0.704733 0.002556
vt 0.732091 0.002556
vt 0.827040 0.739473
vt 0.864100 0.739473
vt 0.864100 0.899182
vt 0.827040 0.899182
vt 0.547459 0.041025
vt 0.547459 0.002556
vt 0.704733 0.466056
vt 0.732091 0.466056
vt 0.737105 0.002307
vt 0.774165 0.002307
vt 0.774165 0.427340
vt 0.737105 0.427340
vt 0.889605 0.709044
vt 0.926664 0.709044
vt 0.926664 0.868755
vt 0.889603 0.868754
vt 0.547459 0.504525
vt 0.547459 0.466056
vt 0.737105 0.799027
vt 0.774165 0.799027
vt 0.774165 0.958736
vt 0.737105 0.958736
vt 0.732091 0.798096
vt 0.704733 0.798096
vt 0.969676 0.868523
vt 0.932615 0.868523
vt 0.932615 0.708813
vt 0.969676 0.708813
vt 0.547459 0.798095
vt 0.547459 0.764005
vt 0.997433 0.703022
vt 0.965609 0.703022
vt 0.965609 0.515660
vt 0.997435 0.515660
vt 0.937070 0.703022
vt 0.905245 0.703022
vt 0.905244 0.515660
vt 0.937070 0.515660
vt 0.794198 0.605899
vt 0.822635 0.605899
vt 0.822634 0.793261
vt 0.794198 0.793261
vt 0.765542 0.605899
vt 0.765542 0.793261
vt 0.737105 0.605899
vt 0.737105 0.793261
vt 0.855579 0.544619
vt 0.884324 0.544619
vt 0.884325 0.731980
vt 0.855579 0.731980
vt 0.827040 0.544619
vt 0.827040 0.731980
vt 0.355861 0.050680
vt 0.355861 0.002473
vt 0.369412 0.002473
vt 0.369412 0.050680
vt 0.476743 0.002473
vt 0.476743 0.050680
vt 0.683235 0.910159
vt 0.660855 0.910159
vt 0.660855 0.801167
vt 0.683235 0.801167
vt 0.540366 0.002473
vt 0.540366 0.050680
vt 0.369412 0.184287
vt 0.355861 0.184287
vt 0.975628 0.709809
vt 0.998008 0.709809
vt 0.998008 0.843414
vt 0.975628 0.843414
vt 0.551369 0.802196
vt 0.573749 0.802196
vt 0.573749 0.935800
vt 0.551369 0.935800
vt 0.540366 0.184287
vt 0.476743 0.184287
vt 0.369412 0.245709
vt 0.355861 0.245709
vt 0.540366 0.245709
vt 0.476743 0.245709
vt 0.710607 0.914059
vt 0.688227 0.914059
vt 0.688227 0.805068
vt 0.710607 0.805068
vt 0.378241 0.914053
vt 0.355861 0.914053
vt 0.355861 0.805062
vt 0.378241 0.805062
vt 0.369412 0.443351
vt 0.355861 0.443351
vt 0.823129 0.340953
vt 0.845510 0.340953
vt 0.845510 0.538594
vt 0.823129 0.538594
vt 0.850501 0.340118
vt 0.872881 0.340118
vt 0.872881 0.537757
vt 0.850501 0.537757
vt 0.540366 0.443351
vt 0.476743 0.443351
vt 0.369412 0.798014
vt 0.355861 0.798014
vt 0.540366 0.798014
vt 0.476743 0.798014
vt 0.628492 0.910270
vt 0.606112 0.910270
vt 0.606112 0.801278
vt 0.628492 0.801278
vt 0.154419 0.869313
vt 0.190813 0.869313
vt 0.190813 0.953554
vt 0.154419 0.953554
vn 0.000000 1.000000 0.000000
vn 0.000000 1.000000 0.000000
vn 0.000000 1.000000 0.000000
vn 0.000000 1.000000 0.000000
vn 1.000000 0.000000 0.000000
vn 1.000000 0.000000 0.000000
vn 1.000000 0.000000 0.000000
vn 1.000000 0.000000 0.000000
vn 1.000000 0.000000 0.000000
vn 1.000000 0.000000 0.000000
vn 1.000000 0.000000 0.000000
vn 1.000000 0.000000 0.000000
vn 0.000000 0.000000 -1.000000
vn 0.000000 0.000000 -1.000000
vn 0.000000 0.000000 -1.000000
vn 0.000000 0.000000 -1.000000
vn 1.000000 0.000000 0.000000
vn 1.000000 0.000000 0.000000
vn 1.000000 0.000000 0.000000
vn 1.000000 0.000000 0.000000
vn 1.000000 0.000000 0.000000
vn 1.000000 0.000000 0.000000
vn 1.000000 0.000000 0.000000
vn 1.000000 0.000000 0.000000
vn 0.000000 -1.000000 0.000000
vn 0.000000 -1.000000 0.000000
vn 0.000000 -1.000000 0.000000
vn 0.000000 -1.000000 0.000000
vn 0.000000 1.000000 0.000000
vn 0.000000 1.000000 0.000000
vn 0.000000 1.000000 0.000000
vn 0.000000 1.000000 0.000000
vn 1.000000 -0.000000 0.000000
vn 1.000000 -0.000000 0.000000
vn 1.000000 -0.000000 0.000000
vn 1.000000 -0.000000 0.000000
vn 1.000000 0.000000 0.000000
vn 1.000000 0.000000 0.000000
vn 1.000000 0.000000 0.000000
vn 1.000000 0.000000 0.000000
vn 1.000000 0.000000 0.000000
vn 1.000000 0.000000 0.000000
vn 1.000000 0.000000 0.000000
vn 1.000000 0.000000 0.000000
vn 1.000000 0.000000 0.000000
vn 1.000000 0.000000 0.000000
vn 1.000000 0.000000 0.000000
vn 1.000000 0.000000 0.000000
vn 0.000000 0.000000 1.000000
vn 0.000000 0.000000 1.000000
vn 0.000000 0.000000 1.000000
vn 0.000000 0.000000 1.000000
vn 0.000000 0.000000 1.000000
vn 0.000000 0.000000 1.000000
vn 0.000000 0.000000 1.000000
vn 0.000000 0.000000 1.000000
vn 1.000000 0.000000 0.000000
vn 1.000000 0.000000 0.000000
vn 1.000000 0.000000 0.000000
vn 1.000000 0.000000 0.000000
vn -1.000000 0.000000 0.000000
vn -1.000000 0.000000 0.000000
vn -1.000000 0.000000 0.000000
vn -1.000000 0.000000 0.000000
vn 0.000000 0.000000 1.000000
vn 0.000000 0.000000 1.000000
vn 0.000000 0.000000 1.000000
vn 0.000000 0.000000 1.000000
vn 0.000000 -1.000000 0.000000
vn 0.000000 -1.000000 0.000000
vn 0.000000 -1.000000 0.000000
vn 0.000000 -1.000000 0.000000
vn 0.000000 0.000000 1.000000
vn 0.000000 0.000000 1.000000
vn 0.000000 0.000000 1.000000
vn 0.000000 0.000000 1.000000
vn -1.000000 0.000000 0.000000
vn -1.000000 0.000000 0.000000
vn -1.000000 0.000000 0.000000
vn -1.000000 0.000000 0.000000
vn 0.000000 0.000000 1.000000
vn 0.000000 0.000000 1.000000
vn 0.000000 0.000000 1.000000
vn 0.000000 0.000000 1.000000
vn 0.000000 0.000000 1.000000
vn 0.000000 0.000000 1.000000
vn 0.000000 0.000000 1.000000
vn 0.000000 0.000000 1.000000
vn 0.000000 -1.000000 0.000000
vn 0.000000 -1.000000 0.000000
vn 0.000000 -1.000000 0.000000
vn 0.000000 -1.000000 0.000000
vn -0.000000 0.000000 1.000000
vn -0.000000 0.000000 1.000000
vn -0.000000 0.000000 1.000000
vn -0.000000 0.000000 1.000000
vn 1.000000 0.000000 0.000000
vn 1.000000 0.000000 0.000000
vn 1.000000 0.000000 0.000000
vn 1.000000 0.000000 0.000000
vn 0.000000 0.000000 1.000000
vn 0.000000 0.000000 1.000000
vn 0.000000 0.000000 1.000000
vn 0.000000 0.000000 1.000000
vn -1.000000 0.000000 0.000000
vn -1.000000 0.000000 0.000000
vn -1.000000 0.000000 0.000000
vn -1.000000 0.000000 0.000000
vn 0.000000 0.000000 1.000000
vn 0.000000 0.000000 1.000000
vn 0.000000 0.000000 1.000000
vn 0.000000 0.000000 1.000000
vn 1.000000 0.000000 0.000000
vn 1.000000 0.000000 0.000000
vn 1.000000 0.000000 0.000000
vn 1.000000 0.000000 0.000000
vn 0.000000 0.000000 1.000000
vn 0.000000 0.000000 1.000000
vn 0.000000 0.000000 1.000000
vn 0.000000 0.000000 1.000000
vn 0.000000 0.000000 1.000000
vn 0.000000 0.000000 1.000000
vn 0.000000 0.000000 1.000000
vn 0.000000 0.000000 1.000000
vn 0.000000 0.000000 -1.000000
vn 0.000000 0.000000 -1.000000
vn 0.000000 0.000000 -1.000000
vn 0.000000 0.000000 -1.000000
vn -1.000000 0.000000 0.000000
vn -1.000000 0.000000 0.000000
vn -1.000000 0.000000 0.000000
vn -1.000000 0.000000 0.000000
vn 1.000000 0.000000 0.000000
vn 1.000000 0.000000 0.000000
vn 1.000000 0.000000 0.000000
vn 1.000000 0.000000 0.000000
vn 0.000000 0.000000 -1.000000
vn 0.000000 0.000000 -1.000000
vn 0.000000 0.000000 -1.000000
vn 0.000000 0.000000 -1.000000
vn -1.000000 0.000000 0.000000
vn -1.000000 0.000000 0.000000
vn -1.000000 0.000000 0.000000
vn -1.000000 0.000000 0.000000
vn 1.000000 0.000000 0.000000
vn 1.000000 0.000000 0.000000
vn 1.000000 0.000000 0.000000
vn 1.000000 0.000000 0.000000
vn 0.000000 0.000000 -1.000000
vn 0.000000 0.000000 -1.000000
vn 0.000000 0.000000 -1.000000
vn 0.000000 0.000000 -1.000000
vn 0.000000 0.000000 -1.000000
vn 0.000000 0.000000 -1.000000
vn 0.000000 0.000000 -1.000000
vn 0.000000 0.000000 -1.000000
vn 0.000000 0.000000 -1.000000
vn 0.000000 0.000000 -1.000000
vn 0.000000 0.000000 -1.000000
vn 0.000000 0.000000 -1.000000
vn -1.000000 0.000000 0.000000
vn -1.000000 0.000000 0.000000
vn -1.000000 0.000000 0.000000
vn -1.000000 0.000000 0.000000
vn 0.000000 0.000000 -1.000000
vn 0.000000 0.000000 -1.000000
vn 0.000000 0.000000 -1.000000
vn 0.000000 0.000000 -1.000000
vn 0.000000 0.000000 -1.000000
vn 0.000000 0.000000 -1.000000
vn 0.000000 0.000000 -1.000000
vn 0.000000 0.000000 -1.000000
vn 0.000000 -1.000000 0.000000
vn 0.000000 -1.000000 0.000000
vn 0.000000 -1.000000 0.000000
vn 0.000000 -1.000000 0.000000
vn 0.000000 1.000000 0.000000
vn 0.000000 1.000000 0.000000
vn 0.000000 1.000000 0.000000
vn 0.000000 1.000000 0.000000
vn 0.000000 0.000000 -1.000000
vn 0.000000 0.000000 -1.000000
vn 0.000000 0.000000 -1.000000
vn 0.000000 0.000000 -1.000000
vn 0.000000 0.000000 -1.000000
vn 0.000000 0.000000 -1.000000
vn 0.000000 0.000000 -1.000000
vn 0.000000 0.000000 -1.000000
vn 0.000000 0.000000 -1.000000
vn 0.000000 0.000000 -1.000000
vn 0.000000 0.000000 -1.000000
vn 0.000000 0.000000 -1.000000
vn -1.000000 0.000000 0.000000
vn -1.000000 0.000000 0.000000
vn -1.000000 0.000000 0.000000
vn -1.000000 0.000000 0.000000
vn 0.000000 0.000000 -1.000000
vn 0.000000 0.000000 -1.000000
vn 0.000000 0.000000 -1.000000
vn 0.000000 0.000000 -1.000000
vn 1.000000 0.000000 0.000000
vn 1.000000 0.000000 0.000000
vn 1.000000 0.000000 0.000000
vn 1.000000 0.000000 0.000000
vn 0.000000 0.000000 -1.000000
vn 0.000000 0.000000 -1.000000
vn 0.000000 0.000000 -1.000000
vn 0.000000 0.000000 -1.000000
vn 0.000000 -1.000000 0.000000
vn 0.000000 -1.000000 0.000000
vn 0.000000 -1.000000 0.000000
vn 0.000000 -1.000000 0.000000
vn 0.000000 1.000000 0.000000
vn 0.000000 1.000000 0.000000
vn 0.000000 1.000000 0.000000
vn 0.000000 1.000000 0.000000
vn 0.000000 0.000000 -1.000000
vn 0.000000 0.000000 -1.000000
vn 0.000000 0.000000 -1.000000
vn 0.000000 0.000000 -1.000000
vn 0.000000 0.000000 -1.000000
vn 0.000000 0.000000 -1.000000
vn 0.000000 0.000000 -1.000000
vn 0.000000 0.000000 -1.000000
vn 0.000000 0.000000 -1.000000
vn 0.000000 0.000000 -1.000000
vn 0.000000 0.000000 -1.000000
vn 0.000000 0.000000 -1.000000
vn 0.000000 0.000000 -1.000000
vn 0.000000 0.000000 -1.000000
vn 0.000000 0.000000 -1.000000
vn 0.000000 0.000000 -1.000000
vn 1.000000 0.000000 0.000000
vn 1.000000 0.000000 0.000000
vn 1.000000 0.000000 0.000000
vn 1.000000 0.000000 0.000000
vn 0.000000 -1.000000 0.000000
vn 0.000000 -1.000000 0.000000
vn 0.000000 -1.000000 0.000000
vn 0.000000 -1.000000 0.000000
s off
g interior
f 3/1/1 2/2/2 1/3/3 4/4/4
f 10/5/5 7/6/6 8/7/7 9/8/8
f 13/9/9 10/5/10 9/8/11 12/10/12
f 14/11/13 11/12/14 10/13/15 13/14/16
f 5/15/17 13/9/18 12/10/19 6/16/20
f 7/6/21 10/5/22 17/17/23 16/18/24
f 10/19/25 11/20/26 15/21/27 17/22/28
f 14/23/29 13/24/30 19/25/31 18/26/32
f 13/9/33 5/15/34 20/27/35 19/28/36
f 16/18/37 17/17/38 22/29/39 21/30/40
f 19/28/41 20/27/42 24/31/43 23/32/44
f 22/29/45 17/17/46 19/28/47 23/32/48
f 17/33/49 15/34/50 18/35/51 19/36/52
f 28/37/53 26/38/54 25/39/55 27/40/56
f 30/41/57 28/37/58 27/40/59 29/42/60
f 26/38/61 32/43/62 31/44/63 25/39/64
f 33/45/65 47/46/66 48/47/67 34/48/68
f 49/49/69 47/50/70 33/51/71 38/52/72
f 36/53/73 35/54/74 40/55/75 39/56/76
f 35/57/77 37/58/78 42/59/79 41/60/80
f 40/55/81 35/54/82 41/61/83 43/62/84
f 44/63/85 35/54/86 36/53/87 45/64/88
f 37/65/89 35/66/90 44/67/91 46/68/92
f 47/46/93 44/63/94 45/64/95 48/47/96
f 46/69/97 44/70/98 51/71/99 50/72/100
f 44/63/101 47/46/102 52/73/103 51/74/104
f 47/75/105 49/76/106 53/77/107 52/78/108
f 33/45/109 34/48/110 54/79/111 55/80/112
f 38/81/113 33/82/114 57/83/115 56/84/116
f 33/45/117 55/80/118 58/85/119 57/86/120
f 62/87/121 60/88/122 59/89/123 61/90/124
f 66/91/125 64/92/126 63/93/127 65/94/128
f 60/88/129 66/91/130 65/94/131 59/89/132
f 72/95/133 70/96/134 69/97/135 71/98/136
f 74/99/137 72/95/138 71/98/139 73/100/140
f 68/101/141 74/99/142 73/100/143 67/102/144
f 78/103/145 76/104/146 75/105/147 77/106/148
f 80/107/149 78/103/150 77/106/151 79/108/152
f 84/109/153 82/110/154 86/111/155 87/112/156
f 87/112/157 86/111/158 89/113/159 90/114/160
f 85/115/161 87/116/162 90/117/163 88/118/164
f 90/114/165 89/113/166 81/119/167 83/120/168
f 84/109/169 87/112/170 92/121/171 91/122/172
f 87/123/173 85/124/174 93/125/175 92/126/176
f 88/127/177 90/128/178 94/129/179 95/130/180
f 90/114/181 83/120/182 96/131/183 94/132/184
f 91/122/185 92/121/186 98/133/187 97/134/188
f 94/132/189 96/131/190 102/135/191 100/136/192
f 99/137/193 98/138/194 100/139/195 101/140/196
f 98/133/197 92/121/198 94/132/199 100/136/200
f 92/141/201 93/142/202 95/143/203 94/144/204
f 97/134/205 98/133/206 104/145/207 103/146/208
f 98/147/209 99/148/210 105/149/211 104/150/212
f 101/151/213 100/152/214 106/153/215 107/154/216
f 100/136/217 102/135/218 108/155/219 106/156/220
f 103/146/221 104/145/222 110/157/223 109/158/224
f 106/156/225 108/155/226 112/159/227 111/160/228
f 110/157/229 104/145/230 106/156/231 111/160/232
f 104/161/233 105/162/234 107/163/235 106/164/236
f 115/165/237 116/166/238 113/167/239 114/168/240
